<svg width="232" height="128" viewBox="0 0 232 128" fill="none" xmlns="http://www.w3.org/2000/svg">
<path fill-rule="evenodd" clip-rule="evenodd" d="M41.1968 115.932C39.1313 115.671 37.5339 113.907 37.5339 111.771V27.7282C37.5339 25.4118 39.4117 23.534 41.7281 23.534H186.92C189.192 23.534 191.042 25.3404 191.112 27.5954C192.515 28.4905 193.416 29.731 193.416 31.1946L194.33 111.72C194.377 115.902 190.977 119.305 186.796 119.261L44.9747 117.775C43.3342 117.775 42.0967 117.026 41.1968 115.932Z" fill="#E0E0E0"/>
<path d="M41.7282 115.033H186.92C188.722 115.033 190.182 113.572 190.182 111.771V27.7281C190.182 25.9265 188.722 24.466 186.92 24.466H41.7282C39.9266 24.466 38.4661 25.9265 38.4661 27.7281V111.771C38.4661 113.572 39.9266 115.033 41.7282 115.033Z" fill="white"/>
<path fill-rule="evenodd" clip-rule="evenodd" d="M147 45.375C147 46.683 145.94 47.75 144.632 47.75H170.632C171.94 47.75 173 46.683 173 45.375C173 44.067 171.94 43 170.632 43H144.632C145.94 43 147 44.067 147 45.375Z" fill="#E0E0E0"/>
<path fill-rule="evenodd" clip-rule="evenodd" d="M129 45.375C129 46.683 127.94 47.75 126.632 47.75H144.632C145.94 47.75 147 46.683 147 45.375C147 44.067 145.94 43 144.632 43H126.632C127.94 43 129 44.067 129 45.375Z" fill="#BDBDBD"/>
<path fill-rule="evenodd" clip-rule="evenodd" d="M101 45.375C101 46.683 99.9396 47.75 98.6316 47.75H126.632C127.94 47.75 129 46.683 129 45.375C129 44.067 127.94 43 126.632 43H98.6316C99.9396 43 101 44.067 101 45.375Z" fill="#FFCD01"/>
<path fill-rule="evenodd" clip-rule="evenodd" d="M78.9999 45.375C78.9999 46.683 77.9396 47.75 76.6316 47.75H98.6316C99.9396 47.75 101 46.683 101 45.375C101 44.067 99.9396 43 98.6316 43H76.6316C77.9396 43 78.9999 44.067 78.9999 45.375Z" fill="#00A456"/>
<path fill-rule="evenodd" clip-rule="evenodd" d="M67.6316 47.75H76.6316C77.9396 47.75 78.9999 46.683 78.9999 45.375C78.9999 44.067 77.9396 43 76.6316 43H67.6316C68.9396 43 69.9999 44.067 69.9999 45.375C69.9999 46.683 68.9396 47.75 67.6316 47.75Z" fill="#EF4038"/>
<rect x="56" y="43" width="14" height="4.75" rx="2.36831" fill="#4285F4"/>
<path fill-rule="evenodd" clip-rule="evenodd" d="M68.6092 67.7604C69.7069 67.7604 70.5968 66.8698 70.5968 65.7713C70.5968 64.6727 69.7069 63.7822 68.6092 63.7822C67.5115 63.7822 66.6216 64.6727 66.6216 65.7713C66.6216 66.8698 67.5115 67.7604 68.6092 67.7604Z" fill="#4285F4"/>
<path fill-rule="evenodd" clip-rule="evenodd" d="M68.6092 74.9211C69.7069 74.9211 70.5968 74.0306 70.5968 72.932C70.5968 71.8335 69.7069 70.9429 68.6092 70.9429C67.5115 70.9429 66.6216 71.8335 66.6216 72.932C66.6216 74.0306 67.5115 74.9211 68.6092 74.9211Z" fill="#EF4038"/>
<path fill-rule="evenodd" clip-rule="evenodd" d="M68.6092 82.0819C69.7069 82.0819 70.5968 81.1914 70.5968 80.0928C70.5968 78.9943 69.7069 78.1037 68.6092 78.1037C67.5115 78.1037 66.6216 78.9943 66.6216 80.0928C66.6216 81.1914 67.5115 82.0819 68.6092 82.0819Z" fill="#00A456"/>
<path fill-rule="evenodd" clip-rule="evenodd" d="M68.6092 89.2427C69.7069 89.2427 70.5968 88.3522 70.5968 87.2536C70.5968 86.1551 69.7069 85.2645 68.6092 85.2645C67.5115 85.2645 66.6216 86.1551 66.6216 87.2536C66.6216 88.3522 67.5115 89.2427 68.6092 89.2427Z" fill="#FFCD01"/>
<path fill-rule="evenodd" clip-rule="evenodd" d="M68.6092 96.4035C69.7069 96.4035 70.5968 95.513 70.5968 94.4144C70.5968 93.3158 69.7069 92.4253 68.6092 92.4253C67.5115 92.4253 66.6216 93.3158 66.6216 94.4144C66.6216 95.513 67.5115 96.4035 68.6092 96.4035Z" fill="#BDBDBD"/>
<path fill-rule="evenodd" clip-rule="evenodd" d="M74.961 64.5778C74.307 64.5778 73.7769 65.1172 73.7769 65.7712C73.7769 66.4252 74.307 66.9647 74.961 66.9647H86.9035C87.5575 66.9647 88.0876 66.4252 88.0876 65.7712C88.0876 65.1172 87.5575 64.5778 86.9035 64.5778H74.961ZM74.961 71.7385C74.307 71.7385 73.7769 72.278 73.7769 72.932C73.7769 73.586 74.307 74.1255 74.961 74.1255H90.0836C90.7376 74.1255 91.2678 73.586 91.2678 72.932C91.2678 72.278 90.7376 71.7385 90.0836 71.7385H74.961ZM73.7769 80.0928C73.7769 79.4388 74.307 78.8993 74.961 78.8993H88.4936C89.1475 78.8993 89.6777 79.4388 89.6777 80.0928C89.6777 80.7468 89.1475 81.2863 88.4936 81.2863H74.961C74.307 81.2863 73.7769 80.7468 73.7769 80.0928ZM74.961 86.0601C74.307 86.0601 73.7769 86.5996 73.7769 87.2536C73.7769 87.9076 74.307 88.447 74.961 88.447H90.0836C90.7376 88.447 91.2678 87.9076 91.2678 87.2536C91.2678 86.5996 90.7376 86.0601 90.0836 86.0601H74.961ZM73.7769 94.4144C73.7769 93.7604 74.307 93.2209 74.961 93.2209H86.9035C87.5575 93.2209 88.0876 93.7604 88.0876 94.4144C88.0876 95.0684 87.5575 95.6078 86.9035 95.6078H74.961C74.307 95.6078 73.7769 95.0684 73.7769 94.4144ZM157.645 64.5778C156.991 64.5778 156.461 65.1172 156.461 65.7712C156.461 66.4252 156.991 66.9647 157.645 66.9647H161.637C162.291 66.9647 162.822 66.4252 162.822 65.7712C162.822 65.1172 162.291 64.5778 161.637 64.5778H157.645ZM157.645 93.2209C156.991 93.2209 156.461 93.7604 156.461 94.4144C156.461 95.0684 156.991 95.6078 157.645 95.6078H161.637C162.291 95.6078 162.822 95.0684 162.822 94.4144C162.822 93.7604 162.291 93.2209 161.637 93.2209H157.645ZM154.871 72.932C154.871 72.278 155.401 71.7385 156.055 71.7385H161.637C162.291 71.7385 162.822 72.278 162.822 72.932C162.822 73.586 162.291 74.1255 161.637 74.1255H156.055C155.401 74.1255 154.871 73.586 154.871 72.932ZM157.645 78.8993C156.991 78.8993 156.461 79.4388 156.461 80.0928C156.461 80.7468 156.991 81.2863 157.645 81.2863H161.637C162.291 81.2863 162.822 80.7468 162.822 80.0928C162.822 79.4388 162.291 78.8993 161.637 78.8993H157.645ZM154.871 87.2536C154.871 86.5996 155.401 86.0601 156.055 86.0601H161.637C162.291 86.0601 162.822 86.5996 162.822 87.2536C162.822 87.9076 162.291 88.447 161.637 88.447H156.055C155.401 88.447 154.871 87.9076 154.871 87.2536Z" fill="#E0E0E0"/>
</svg>
