<svg width="232" height="142" viewBox="0 0 232 142" fill="none" xmlns="http://www.w3.org/2000/svg">
<path fill-rule="evenodd" clip-rule="evenodd" d="M152.018 125.503L69.4779 123.532C67.0498 123.532 64.0786 121.572 64.0786 119.154V58.218C64.0786 55.8001 67.0498 53.8398 69.4779 53.8398H153.776C156.205 53.8398 158.174 55.8001 158.174 58.218L160.811 116.747C160.811 121.582 156.874 125.503 152.018 125.503" fill="#E0E0E0"/>
<path fill-rule="evenodd" clip-rule="evenodd" d="M147.116 121.841L110.483 95.2294L73.851 68.5742L73.7761 121.739L147.116 121.841Z" fill="white"/>
<path fill-rule="evenodd" clip-rule="evenodd" d="M110.503 80.982L69.5589 53.0002L69.4426 53C65.9371 53.0569 63.0835 55.9281 63.0788 59.4333L63 115.283C62.9945 118.813 65.8813 121.709 69.4213 121.735C69.4348 121.735 69.4484 121.735 69.4619 121.735L73.7754 121.742L73.8484 70.1971L110.483 95.2344L147.187 70.3001L147.115 121.845L151.43 121.851C154.953 121.855 157.846 119.017 157.909 115.522L157.972 71.4819L157.988 59.5675C157.994 56.0732 155.169 53.2019 151.679 53.115L151.527 53.1148L110.503 80.982Z" fill="#EA4335"/>
<path fill-rule="evenodd" clip-rule="evenodd" d="M151.952 53.1284C151.811 53.1189 151.669 53.1141 151.526 53.1138L69.5589 53H69.5487C69.4095 53 69.2713 53.0044 69.1343 53.0132L69.4175 53.2068L110.363 81.1886L110.503 81.2847L110.644 81.189L151.667 53.3218L151.952 53.1284Z" fill="#EDEDED"/>
<circle cx="63" cy="103" r="22" fill="#4285F4"/>
<path d="M65.2975 115.729H60.7024C59.7833 115.729 59.0133 115.058 58.9016 114.151L58.5663 111.804C58.2309 111.63 57.908 111.444 57.5851 111.233L55.3496 112.127C54.4803 112.45 53.524 112.09 53.1017 111.32L50.829 107.383C50.3943 106.563 50.5806 105.594 51.2761 105.048L53.1763 103.57C53.1638 103.384 53.1514 103.197 53.1514 102.999C53.1514 102.812 53.1638 102.614 53.1763 102.427L51.2885 100.949C50.5558 100.391 50.3695 99.3846 50.829 98.6146L53.1266 94.6529C53.5488 93.8829 54.5051 93.5351 55.3496 93.8704L57.5975 94.7771C57.9204 94.5659 58.2433 94.3796 58.5663 94.2058L58.9016 91.8337C59.0133 90.9643 59.7833 90.2812 60.69 90.2812H65.2851C66.2042 90.2812 66.9742 90.9519 67.0859 91.8585L67.4213 94.2058C67.7566 94.3796 68.0795 94.5659 68.4024 94.7771L70.6379 93.8829C71.5196 93.56 72.4759 93.9201 72.8982 94.6901L75.1833 98.6395C75.6304 99.4592 75.4317 100.428 74.7363 100.974L72.8485 102.452C72.8609 102.639 72.8734 102.825 72.8734 103.024C72.8734 103.222 72.8609 103.409 72.8485 103.595L74.7363 105.073C75.4317 105.632 75.6304 106.6 75.1958 107.383L72.8858 111.382C72.4635 112.152 71.5072 112.499 70.6503 112.164L68.4148 111.27C68.0919 111.481 67.769 111.667 67.4461 111.841L67.1108 114.213C66.9866 115.058 66.2166 115.729 65.2975 115.729ZM61.2861 113.245H64.7138L65.1733 110.078L65.8316 109.804C66.378 109.581 66.9245 109.258 67.4958 108.836L68.0546 108.414L71.0104 109.606L72.7243 106.625L70.2032 104.663L70.2901 103.967C70.3274 103.644 70.3646 103.334 70.3646 102.999C70.3646 102.663 70.3274 102.34 70.2901 102.03L70.2032 101.334L72.7243 99.3722L70.998 96.3916L68.0298 97.5838L67.4709 97.1492C66.9493 96.7517 66.3904 96.4288 65.8192 96.1929L65.1733 95.9196L64.7138 92.7527H61.2861L60.8266 95.9196L60.1683 96.1804C59.6219 96.4164 59.0754 96.7269 58.5042 97.1616L57.9453 97.5714L54.9895 96.3916L53.2632 99.3598L55.7843 101.322L55.6974 102.018C55.6601 102.34 55.6229 102.676 55.6229 102.999C55.6229 103.322 55.6477 103.657 55.6974 103.967L55.7843 104.663L53.2632 106.625L54.9771 109.606L57.9453 108.414L58.5042 108.848C59.0382 109.258 59.5722 109.569 60.1559 109.804L60.8142 110.078L61.2861 113.245Z" fill="white"/>
<path d="M62.9998 107.346C65.4005 107.346 67.3466 105.4 67.3466 102.999C67.3466 100.598 65.4005 98.6523 62.9998 98.6523C60.5992 98.6523 58.6531 100.598 58.6531 102.999C58.6531 105.4 60.5992 107.346 62.9998 107.346Z" fill="white"/>
<circle cx="145.5" cy="30.5" r="11.5" fill="#34A853"/>
<path d="M151.35 35.3941L147.689 31.7333C148.181 31.0497 148.481 30.2255 148.481 29.3247C148.481 27.031 146.622 25.1719 144.329 25.1719C142.035 25.1719 140.176 27.031 140.176 29.3247C140.176 31.6183 142.035 33.4774 144.329 33.4774C145.229 33.4774 146.054 33.1772 146.737 32.6852L150.398 36.346L151.35 35.3941ZM141.454 29.3247C141.454 27.7338 142.738 26.4497 144.329 26.4497C145.919 26.4497 147.204 27.7338 147.204 29.3247C147.204 30.9155 145.919 32.1997 144.329 32.1997C142.738 32.1997 141.454 30.9155 141.454 29.3247Z" fill="white"/>
<circle cx="183.5" cy="59.5" r="16.5" fill="#FBBC04"/>
<path d="M177.185 51.5586V66.2253L193.482 58.8919L177.185 51.5586ZM178.815 60.5216L186.148 58.8919L178.815 57.2623V54.0764L189.513 58.8919L178.815 63.7075V60.5216Z" fill="white"/>
</svg>
