<svg width="232" height="128" viewBox="0 0 232 128" fill="none" xmlns="http://www.w3.org/2000/svg">
<path fill-rule="evenodd" clip-rule="evenodd" d="M100.592 120L58.4658 118.652C56.8035 118.652 55.4556 117.31 55.4556 115.654V54.9626C55.4556 53.3072 56.8035 51.9653 58.4658 51.9653H101.796C103.459 51.9653 104.806 53.3072 104.806 54.9626L106.612 114.006C106.612 117.316 103.917 120 100.592 120Z" fill="#E0E0E0"/>
<path fill-rule="evenodd" clip-rule="evenodd" d="M53 49.8783V115.826H101.163V67.4893V49.8783H53Z" fill="#4285F4"/>
<path fill-rule="evenodd" clip-rule="evenodd" d="M61.2781 67.8641H94.3903V64.8664H61.2781V67.8641ZM61.2781 63.3679H87.6174V60.3702H61.2781V63.3679ZM61.2781 81.3538H90.2513V78.356H61.2781V81.3538ZM61.2781 76.8572H92.1324V73.8591H61.2781V76.8572ZM61.2781 72.3606H90.2513V69.3629H61.2781V72.3606ZM61.2781 90.3464H87.6174V87.3487H61.2781V90.3464ZM61.2781 85.8499H94.3903V82.8522H61.2781V85.8499ZM61.2781 103.836H79.3393V100.838H61.2781V103.836ZM61.2781 99.3396H94.3903V96.3419H61.2781V99.3396ZM61.2781 94.843H90.2513V91.8453H61.2781V94.843Z" fill="#3362B5"/>
<path fill-rule="evenodd" clip-rule="evenodd" d="M143.823 107.136L90.3793 105.788C88.717 105.788 87.3699 104.446 87.3699 102.791V29.8435C87.3699 28.1885 88.717 26.8462 90.3793 26.8462H145.027C146.689 26.8462 148.036 28.1885 148.036 29.8435L149.842 101.142C149.842 104.453 147.147 107.136 143.823 107.136Z" fill="#E0E0E0"/>
<path fill-rule="evenodd" clip-rule="evenodd" d="M85.5 103H145.25V23.5H85.5V103Z" fill="#E0E0E0"/>
<path fill-rule="evenodd" clip-rule="evenodd" d="M86 102.47H144.68V24H86V102.47Z" fill="white"/>
<path fill-rule="evenodd" clip-rule="evenodd" d="M88.627 26.9223V100.383H142.277V26.9219L88.627 26.9223Z" fill="#F4EECB"/>
<path fill-rule="evenodd" clip-rule="evenodd" d="M88.627 59.5009V100.383H142.277V64.3451C125.038 71.9846 112.367 55.047 105.085 45.3127C104.4 44.3968 103.763 43.5446 103.174 42.7827C103.174 42.7827 97.0098 56.8117 88.627 59.5009Z" fill="#A5D6A7"/>
<path fill-rule="evenodd" clip-rule="evenodd" d="M107.287 75.8781C109.603 81.5839 113.139 82.9199 113.139 82.9199C108.751 85.105 105.093 82.7313 105.093 82.7313C105.093 85.9042 105.264 87.6963 105.441 88.7009C112.048 87.9725 116.479 85.1358 120.692 82.4391C125.049 79.6496 129.173 77.0099 135.228 77.0086H135.237C137.324 77.0091 139.642 77.3231 142.277 78.0527V100.383H88.627V86.6443C93.5681 88.1215 97.7226 88.7829 101.3 88.8695C101.487 87.9015 101.679 86.0898 101.679 82.7304C101.679 82.7304 98.0222 85.1041 93.6329 82.9191C93.6329 82.9191 97.1684 81.5839 99.485 75.8773C99.485 75.8773 97.6563 77.2129 95.0957 75.3923C95.0957 75.3923 98.7532 73.9352 100.948 67.3796C100.948 67.3796 99.8501 68.2286 98.2657 67.3796C98.2657 67.3796 101.191 65.0715 103.386 56.6948C105.581 65.0727 108.507 67.3796 108.507 67.3796C106.922 68.2282 105.824 67.3796 105.824 67.3796C108.019 73.9352 111.677 75.3923 111.677 75.3923C109.116 77.2134 107.287 75.8781 107.287 75.8781Z" fill="#0D7533"/>
<path fill-rule="evenodd" clip-rule="evenodd" d="M119.644 39.4436C119.644 41.748 121.52 43.6175 123.835 43.6175C126.149 43.6175 128.026 41.748 128.026 39.4436C128.026 37.1383 126.149 35.2697 123.835 35.2697C121.52 35.2697 119.644 37.1383 119.644 39.4436Z" fill="#FBBC05"/>
<path fill-rule="evenodd" clip-rule="evenodd" d="M120.901 45.7045H142.278V44.1316C141.68 43.2161 140.504 42.8491 139.15 42.8491C139.047 42.8491 138.944 42.8915 138.842 42.9334C138.763 42.966 138.685 42.9983 138.608 43.0102C138.8 42.5098 138.907 42.0273 138.907 41.4609C138.907 38.9465 136.831 36.9388 134.272 36.9388C132.228 36.9388 130.496 38.252 129.878 40.0538C129.28 39.6619 128.56 39.4403 127.787 39.4403C125.699 39.4403 124.008 41.1061 124.008 43.1551C124.008 43.4781 123.897 43.6063 123.779 43.6063C122.277 43.6058 121.043 44.4523 120.901 45.7045Z" fill="white"/>
<path fill-rule="evenodd" clip-rule="evenodd" d="M175.128 117.228L131.243 116.18C129.952 116.18 128.372 115.138 128.372 113.853V81.4538C128.372 80.1682 129.952 79.126 131.243 79.126H176.063C177.354 79.126 178.401 80.1682 178.401 81.4538L179.803 112.573C179.803 115.144 177.71 117.228 175.128 117.228Z" fill="#E0E0E0"/>
<path fill-rule="evenodd" clip-rule="evenodd" d="M157.627 113.184L169.401 113.2L149.924 99.0515L130.448 84.8794L130.408 113.146L157.627 113.184Z" fill="white"/>
<path fill-rule="evenodd" clip-rule="evenodd" d="M169.401 113.2L169.911 113.201L171.695 113.204C173.574 113.206 175.117 111.687 175.14 109.82L175.156 98.9598L175.182 80.0886C175.185 78.2204 173.666 76.6872 171.797 76.6573L171.747 76.6572L149.935 91.4738L128.166 76.5963L128.165 76.5963H128.16C126.271 76.5963 124.723 78.1348 124.72 80.0173L124.678 109.712C124.675 111.596 126.222 113.14 128.114 113.142L130.407 113.145L130.446 85.7397L149.924 99.0515L169.44 85.7942L169.401 113.2Z" fill="#EA4335"/>
<path fill-rule="evenodd" clip-rule="evenodd" d="M172.155 76.6817C172.021 76.6655 171.885 76.657 171.746 76.6568L128.166 76.5963H128.16C128.024 76.5963 127.889 76.6043 127.757 76.6199L128.024 76.8025L149.794 91.68L149.935 91.7761L150.076 91.6804L171.887 76.8638L172.155 76.6817Z" fill="#EDEDED"/>
</svg>
