<svg width="232" height="128" viewBox="0 0 232 128" fill="none" xmlns="http://www.w3.org/2000/svg">
<path fill-rule="evenodd" clip-rule="evenodd" d="M44 28.4419C41.7909 28.4419 40 30.2328 40 32.4419V37.3815V111.43C40 112.59 40.493 113.634 41.2809 114.364C41.7675 115.898 43.1902 117.013 44.8793 117.041L96.0776 117.87C96.6966 117.88 97.335 117.923 97.9781 117.966C100.351 118.125 102.787 118.288 104.543 116.827C105.461 116.063 106.124 114.794 105.963 112.692C105.513 106.824 105.391 37.3815 105.391 37.3815C105.391 34.5965 104.522 32.3057 102.979 32.0282C102.772 30.0135 101.069 28.4419 99 28.4419H44Z" fill="#E0E0E0"/>
<path fill-rule="evenodd" clip-rule="evenodd" d="M72.0211 57.9949C77.9215 57.9949 82.7049 53.2212 82.7049 47.3319C82.7049 41.4426 77.9215 36.6689 72.0211 36.6689C66.1203 36.6689 61.3368 41.4426 61.3368 47.3319C61.3368 53.2212 66.1203 57.9949 72.0211 57.9949ZM44.0115 114.252C42.3546 114.252 41.0115 112.909 41.0115 111.252V65.8672H101.683V111.252C101.683 112.909 100.339 114.252 98.6826 114.252H44.0115Z" fill="white"/>
<path fill-rule="evenodd" clip-rule="evenodd" d="M58.175 75.35C57.5261 75.35 57 74.8239 57 74.175C57 73.5261 57.5261 73 58.175 73H92.0042C92.6531 73 93.1792 73.5261 93.1792 74.175C93.1792 74.8239 92.6531 75.35 92.0042 75.35H58.175ZM58.175 91.7919C57.5261 91.7919 57 91.2658 57 90.6169C57 89.9679 57.5261 89.4419 58.175 89.4419H92.0042C92.6531 89.4419 93.1792 89.9679 93.1792 90.6169C93.1792 91.2658 92.6531 91.7919 92.0042 91.7919H58.175ZM57 106.617C57 107.266 57.5261 107.792 58.175 107.792H92.0042C92.6531 107.792 93.1792 107.266 93.1792 106.617C93.1792 105.968 92.6531 105.442 92.0042 105.442H58.175C57.5261 105.442 57 105.968 57 106.617ZM40 83H101.984V82H40V83ZM40 98.906H101.984V98.094H40V98.906Z" fill="#E0E0E0"/>
<path fill-rule="evenodd" clip-rule="evenodd" d="M47.6509 76.5943H50.1489V71.8667H47.6509V76.5943ZM50.4077 71L50.4876 71.0072L50.5602 71.0291L50.6257 71.0654L50.6836 71.116L50.7347 71.1742L50.7711 71.2395L50.793 71.312L50.8002 71.3989V77.0805L50.793 77.1602L50.7711 77.2327L50.7347 77.3052L50.6836 77.3634L50.6257 77.4068L50.5602 77.4431L50.4876 77.4722L50.4077 77.4794H47.3997L47.3194 77.4722L47.24 77.4431L47.174 77.4068L47.1162 77.3634L47.065 77.3052L47.0287 77.2327L47.0072 77.1602L47 77.0805V71.3989L47.0072 71.312L47.0287 71.2395L47.065 71.1742L47.1162 71.116L47.174 71.0654L47.24 71.0291L47.3194 71.0072L47.3997 71H50.4077ZM47.7323 105.183H49.2175V104.812H47.7323V105.183ZM49.5885 105.183V104.812L49.2175 104.442H47.7328L47.3614 104.825V105.183H46.4952C46.2225 105.183 46 105.405 46 105.677V106.665C46 106.936 46.2225 107.159 46.4952 107.159H47.98V106.788H48.9699V107.159H50.4551C50.7269 107.159 50.9503 106.936 50.9503 106.665V105.677C50.9503 105.405 50.7269 105.183 50.4551 105.183H49.5885ZM48.9699 107.776H47.98V107.406H46.2476V108.394C46.2476 108.666 46.4701 108.888 46.7428 108.888H50.2075C50.4798 108.888 50.7027 108.666 50.7027 108.394V107.406H48.9699V107.776ZM48.1576 91.4024V93.0172H46.8088V90.8639H46L48.6968 88.4419L51.3935 90.8639H50.5843V93.0172H49.2359V91.4024H48.1576Z" fill="#BDBDBD"/>
<path fill-rule="evenodd" clip-rule="evenodd" d="M72.0211 48.8267C68.8717 48.8844 66.1355 50.1751 66.1355 51.7617V53.0703C67.7256 54.4102 69.7774 55.2192 72.0211 55.2192C74.2648 55.2192 76.3161 54.4102 77.9066 53.0703V51.7617C77.9066 50.1751 75.1704 48.8844 72.0211 48.8267ZM68.9794 44.4062C68.9794 42.7305 70.3417 41.3709 72.0211 41.3709C73.7 41.3709 75.0623 42.7305 75.0623 44.4062C75.0623 46.0842 73.7 47.442 72.0211 47.442C70.3417 47.442 68.9794 46.0842 68.9794 44.4062Z" fill="#4285F4"/>
<path fill-rule="evenodd" clip-rule="evenodd" d="M115.626 86.1527L108.738 87.1429C108.018 87.4132 107.21 87.0438 106.941 86.3252L100.44 68.9351C100.171 68.2166 100.539 67.4071 101.258 67.1395L108.148 66.148C108.867 65.879 109.675 66.2485 109.943 66.967L116.445 84.3571C116.714 85.0756 116.346 85.8851 115.626 86.1527Z" fill="#444545"/>
<path fill-rule="evenodd" clip-rule="evenodd" d="M165.103 53.6734C166.618 60.7311 164.448 67.7181 159.895 72.6337C158.63 73.9982 157.182 75.2032 155.579 76.2061V85.362C155.579 85.362 152.461 86.5196 149.263 87.6795C150.25 89.6508 150.119 92.0915 148.718 93.9829C148.718 93.9829 129.641 110.684 124.962 114.515C124.799 114.648 124.629 114.774 124.452 114.892C124.273 115.113 124.074 115.322 123.855 115.517C121.704 117.411 117.891 117.011 116.241 114.669C113.336 110.558 108.101 100.488 105.576 95.5304L105.527 95.5855L104 92.5132C103.792 92.2414 103.656 91.959 103.581 91.671L101.591 87.6681L101.119 85.4894C101.119 85.4894 99.8755 80.0128 100.032 78.4997C100.186 76.9879 103.186 70.767 103.186 70.767C103.186 70.767 103.88 68.7554 104.861 69.3422C106.178 70.0091 104.839 72.257 104.605 72.511C104.37 72.765 103.336 77.2148 103.336 77.2148L106.004 73.7661L109.544 71.074C109.544 71.074 111.05 70.6026 110.709 72.5817C110.598 73.7511 107.746 75.5482 107.746 75.5482L106.102 78.425L108.288 75.9108L111.406 73.9046C111.406 73.9046 113.594 73.5732 112.157 76.0657L109.436 77.879L108.409 80.3578C108.409 80.3578 111.103 78.2919 112.639 78.209C112.639 78.209 114.032 78.3123 112.962 79.9381C112.768 80.2346 112.448 80.3267 112.139 80.416C111.916 80.4801 111.699 80.5427 111.538 80.6784C110.686 81.3928 110.186 82.1983 110.186 82.1983C110.186 82.1983 110.5 84.6455 108.829 86.7177C109.143 86.8752 109.454 87.1229 109.766 87.4735L121.936 104.832L139.013 86.7962C139.913 85.581 141.181 84.8011 142.549 84.4961V79.3751C133.424 78.6324 125.476 72.0173 123.459 62.6055L122.013 56.1482C119.548 44.6476 126.872 33.3223 138.369 30.857C149.875 28.3917 161.195 35.7142 163.658 47.2189L165.103 53.6734Z" fill="#F1B13B"/>
<path fill-rule="evenodd" clip-rule="evenodd" d="M162.785 44.2853L164.757 51.2282L164.86 51.9553C166.974 51.8522 168.916 53.2786 169.397 55.411C169.936 57.8029 168.435 60.1745 166.041 60.711C165.833 60.7579 165.624 60.7892 165.417 60.8057C164.856 65.2659 162.891 69.399 159.894 72.6353C157.019 75.7363 153.198 78.0128 148.751 78.9676C146.038 79.5489 143.335 79.5859 140.757 79.1521C141.129 78.737 141.977 78.3536 143.395 78.0494C147.844 77.0959 151.664 74.8181 154.538 71.7185C159.093 66.8002 161.259 59.8132 159.749 52.7582L158.303 46.3037C156.278 36.8465 148.341 36.2297 145.481 36.0075C144.861 35.9593 144.48 35.9297 144.449 35.8327C143.191 31.9589 158.007 31.6234 162.785 44.2853Z" fill="#EDA129"/>
<path fill-rule="evenodd" clip-rule="evenodd" d="M138.101 72.1323C136.961 72.1323 135.821 71.8796 134.742 71.3757C134.486 71.2562 134.377 70.9546 134.496 70.6979C134.616 70.4439 134.923 70.3353 135.173 70.4534C136.941 71.2793 138.899 71.3322 140.685 70.5988C141.827 70.1261 142.818 69.3586 143.549 68.3753C143.714 68.1484 144.033 68.1022 144.26 68.2707C144.486 68.4377 144.533 68.7583 144.365 68.9838C143.524 70.1152 142.385 70.9981 141.073 71.54C140.11 71.9353 139.105 72.1323 138.101 72.1323Z" fill="#F05B5B"/>
<path fill-rule="evenodd" clip-rule="evenodd" d="M155.801 34.4021C158.639 32.1314 160.098 28.366 159.249 24.5804C158.06 19.2926 152.81 15.9689 147.524 17.1574C142.237 18.3445 138.913 23.5957 140.101 28.8848C140.227 29.4446 140.398 29.9824 140.61 30.4951C139.863 30.5767 139.115 30.697 138.368 30.8573C138.081 30.9188 137.796 30.9859 137.514 31.0583L137.456 31.0735C126.674 33.8779 119.848 44.5846 121.898 55.5793C124.008 55.5978 126.153 55.3863 128.303 54.9251C134.53 53.5907 139.863 50.3632 143.83 45.975C148.67 57.0704 161.142 59.4078 161.142 59.4078C161.142 59.4078 155.216 55.5676 151.432 49.3853C154.282 50.9776 157.407 52.0928 160.679 52.6492C162.1 52.8915 163.549 53.028 165.016 53.0521L164.146 46.9095C163.017 41.6366 159.926 37.3077 155.801 34.4021ZM141.843 60.1636L141.901 60.1677C142.157 60.1677 142.378 59.9748 142.408 59.7154C142.563 58.3489 143.563 57.2406 144.896 56.9553C146.241 56.6674 147.605 57.2704 148.307 58.4522C148.452 58.6953 148.767 58.7741 149.003 58.6301C149.245 58.4875 149.325 58.1737 149.181 57.9319C148.258 56.3726 146.446 55.5794 144.684 55.9583C142.921 56.3359 141.6 57.7988 141.393 59.5999C141.364 59.8797 141.563 60.1323 141.843 60.1636ZM125.279 63.7185L125.222 63.7158C124.944 63.6845 124.742 63.4332 124.773 63.1534C124.971 61.3524 126.292 59.8881 128.058 59.5065C129.823 59.1302 131.628 59.9207 132.557 61.48C132.701 61.7205 132.622 62.0342 132.38 62.1782C132.14 62.3222 131.826 62.2434 131.682 62.0003C130.976 60.8172 129.606 60.2182 128.274 60.5034C126.936 60.7914 125.935 61.9011 125.786 63.2648C125.757 63.5243 125.536 63.7185 125.279 63.7185Z" fill="#444545"/>
<path fill-rule="evenodd" clip-rule="evenodd" d="M159.412 128H131.963C131.759 127.491 131.615 126.951 131.538 126.387L128.878 106.761C128.624 104.882 129.167 102.982 130.373 101.522L141.993 87.4542C143.282 85.8908 145.202 84.9862 147.226 84.9862H153.629C155.449 84.9862 157.191 85.717 158.468 87.0141C159.744 88.3113 160.448 90.0648 160.418 91.8849L159.896 125.58C159.883 126.435 159.713 127.251 159.412 128Z" fill="#EA4335"/>
<path fill-rule="evenodd" clip-rule="evenodd" d="M164.419 118.986V93.0385C164.419 90.0095 161.956 87.5456 158.929 87.5456C155.902 87.5456 153.438 90.0095 153.438 93.0385V118.987L164.419 118.986ZM151.402 118.987V93.0385C151.402 88.8862 154.777 85.5082 158.929 85.5082C163.08 85.5082 166.456 88.8862 166.456 93.0385V118.986L175.627 118.986V128H144.683V118.987L151.402 118.987Z" fill="#0D7533"/>
<path fill-rule="evenodd" clip-rule="evenodd" d="M132.666 97.2643C132.91 97.4041 133.143 97.5734 133.359 97.7725L146.463 113.183L152.323 91.9163C152.814 88.6157 155.883 86.3446 159.183 86.8336C162.483 87.328 164.756 90.3991 164.262 93.6957C164.262 93.6957 155.281 117.406 152.946 122.988C152.326 124.474 151.111 125.809 149.662 126.435C147.615 127.479 144.815 127.13 143.298 125.378C138.845 120.236 128.214 103.324 128.214 103.324C127.667 102.818 127.303 102.187 127.125 101.515C126.191 100.477 125.039 99.5112 123.864 99.2899C121.385 98.8213 118.237 95.5084 116.628 92.9806C116.257 92.3993 116.161 91.5789 116.844 91.1035L117.181 90.9201C116.989 90.3578 117.278 89.6637 117.9 89.2753C118.162 89.1109 118.445 89.0253 118.716 89.0104C118.634 88.5268 118.859 87.9876 119.436 87.6195C119.508 87.5739 119.582 87.5262 119.659 87.477C119.754 87.4162 119.853 87.3533 119.953 87.2894C120.622 87.0498 121.429 87.3426 121.989 87.5456C122.562 87.7535 122.877 87.8674 122.517 87.2202C122.11 86.4881 119.217 84.1206 117.14 83.2839C115.317 82.5504 115.961 79.918 117.121 80.2522C119.633 80.9734 121.341 82.1388 123.23 83.6601C123.588 83.9486 123.992 84.2972 124.412 84.6717C124.436 85.0623 124.641 85.4447 125.102 85.707C125.261 85.7977 125.417 85.8846 125.568 85.9691C125.806 86.102 126.034 86.2289 126.248 86.3544C126.307 86.409 126.365 86.4631 126.422 86.5167C127.081 87.1296 127.657 87.6666 128.021 87.9754C127.679 87.2814 127.055 86.8269 126.248 86.3544C125.66 85.8074 125.019 85.2124 124.412 84.6717C124.353 83.7096 125.391 82.6972 126.404 83.3029C126.655 83.4529 126.897 83.5936 127.131 83.7293C129.382 85.0361 130.825 85.874 131.474 89.9938C131.659 91.6984 131.589 92.6885 131.537 93.4329C131.45 94.6709 131.41 95.2293 132.666 97.2643Z" fill="#F1B13B"/>
</svg>
