<svg width="232" height="128" viewBox="0 0 232 128" fill="none" xmlns="http://www.w3.org/2000/svg">
<path fill-rule="evenodd" clip-rule="evenodd" d="M50 110.5C56.6274 110.5 62 109.716 62 108.75C62 107.784 56.6274 107 50 107C43.3726 107 38 107.784 38 108.75C38 109.716 43.3726 110.5 50 110.5ZM116 120.5C129.255 120.5 140 119.493 140 118.25C140 117.007 129.255 116 116 116C102.745 116 92 117.007 92 118.25C92 119.493 102.745 120.5 116 120.5ZM194 108.75C194 109.716 188.627 110.5 182 110.5C175.373 110.5 170 109.716 170 108.75C170 107.784 175.373 107 182 107C188.627 107 194 107.784 194 108.75Z" fill="#EEEEEE"/>
<path fill-rule="evenodd" clip-rule="evenodd" d="M140.437 69.5285C140.361 82.9579 129.226 93.7879 115.569 93.719C101.911 93.6501 90.8997 82.7075 90.976 69.2781C91.0522 55.8487 102.187 45.0187 115.844 45.0876C129.502 45.1565 140.513 56.0991 140.437 69.5285Z" fill="white"/>
<path fill-rule="evenodd" clip-rule="evenodd" d="M106.735 75.5497C109.099 75.3586 110.858 73.3194 110.665 70.995C110.471 68.6714 108.398 66.942 106.034 67.1331C103.67 67.325 103.144 69.2647 103.337 71.5883C103.53 73.9128 104.371 75.7408 106.735 75.5497ZM124.608 75.6401C122.246 75.4254 120.51 73.368 120.73 71.0461C120.949 68.7243 123.042 67.0167 125.403 67.2313C127.766 67.4468 128.27 69.3918 128.05 71.7136C127.83 74.0355 126.969 75.8556 124.608 75.6401ZM121.618 88.1579C121.618 88.1579 121.296 93.7404 115.568 93.7116C109.84 93.6829 109.581 88.0968 109.581 88.0968L109.648 76.2834L121.685 76.3445L121.618 88.1579Z" fill="#8D6E63"/>
<path fill-rule="evenodd" clip-rule="evenodd" d="M105.152 70.2363C105.151 70.383 105.15 70.5291 105.149 70.6746C105.117 76.4029 109.8 83.3972 115.627 83.4269C121.453 83.4557 126.216 76.5094 126.248 70.7811C126.249 70.636 126.25 70.4904 126.251 70.3441C126.297 63.0808 126.351 54.4538 115.792 54.4008C105.232 54.3469 105.188 62.9732 105.152 70.2363Z" fill="#A1887F"/>
<path fill-rule="evenodd" clip-rule="evenodd" d="M115.677 74.6276C116.284 74.6302 116.825 74.3553 117.177 73.9226C117.288 73.7882 117.186 73.5858 117.009 73.5849L114.356 73.5709C114.179 73.5701 114.075 73.7716 114.184 73.9086C114.531 74.3431 115.069 74.6241 115.677 74.6276ZM118.235 77.7394C118.233 78.126 117.223 78.6844 115.654 78.6765C114.084 78.6687 113.081 78.0998 113.083 77.7133C113.084 77.4893 113.469 77.547 114.069 77.637H114.069C114.507 77.7026 115.058 77.7853 115.659 77.7883C116.258 77.7912 116.811 77.7143 117.249 77.6533C117.85 77.5696 118.236 77.5158 118.235 77.7394Z" fill="#795548"/>
<path fill-rule="evenodd" clip-rule="evenodd" d="M108.947 60.5042L105.981 68.1702C106.122 70.1916 106.27 72.2135 106.517 73.1639C107.222 75.8713 108.79 77.2134 111.486 75.9672C112.52 75.3568 114.128 75.1404 115.674 75.1477C117.222 75.1561 118.829 75.3895 119.857 76.0121C122.535 77.281 124.117 75.9564 124.852 73.2564C125.111 72.3089 125.281 70.2897 125.445 68.2705L122.566 60.5731L108.947 60.5042ZM119.569 84.9942C119.777 84.8265 119.976 84.6707 120.171 84.5189C121.483 83.4943 122.564 82.6503 124.43 79.5623C126.285 76.4944 126.569 73.0054 126.264 67.7358L126.321 57.7722C126.339 54.6354 124.064 51.9401 120.925 51.3992C119.408 51.1383 117.663 50.9437 115.811 50.9341C113.957 50.9245 112.209 51.1025 110.687 51.3494C107.545 51.8581 105.242 54.5264 105.224 57.6606L105.168 67.6387C104.803 72.8997 105.05 76.3885 106.868 79.4724C108.673 82.5351 109.869 83.5002 111.176 84.5552L111.176 84.5553C111.339 84.6871 111.504 84.8203 111.672 84.9591C111.714 84.9961 111.757 85.0323 111.803 85.0676C112.007 85.2357 112.149 85.3235 112.242 85.3443C113.021 85.7497 114.181 85.9868 115.612 85.9943C117.043 86.0013 118.206 85.776 118.99 85.3784C119.082 85.3586 119.222 85.2744 119.422 85.1134C119.474 85.0747 119.523 85.035 119.569 84.9942ZM112.094 69.6879C112.091 70.1207 111.733 70.4697 111.293 70.468C110.853 70.4654 110.498 70.1128 110.501 69.6801C110.503 69.2473 110.861 68.8991 111.301 68.9009C111.742 68.9035 112.097 69.256 112.094 69.6879ZM120.908 69.733C120.906 70.1649 120.547 70.5148 120.107 70.5122C119.667 70.5105 119.312 70.1571 119.315 69.7243C119.317 69.2915 119.676 68.9434 120.115 68.946C120.556 68.9477 120.911 69.3002 120.908 69.733ZM109.599 67.169C110.118 66.8567 110.655 66.663 111.217 66.5975C111.813 66.5286 112.437 66.6019 113.099 66.827C113.518 66.9692 113.497 67.2537 113.033 67.2397C111.368 67.1917 110.69 67.3261 109.559 67.5809C109.108 67.6821 109.103 67.4675 109.599 67.169ZM120.227 66.6432C120.788 66.7147 121.322 66.9128 121.839 67.2313C122.331 67.5349 122.324 67.7487 121.874 67.6431C120.744 67.377 120.069 67.2365 118.403 67.267C117.94 67.2758 117.922 66.9931 118.342 66.8534C119.007 66.6344 119.632 66.5672 120.227 66.6432ZM118.726 81.5269C118.353 81.8996 117.919 81.6184 117.388 81.2737C116.923 80.9721 116.382 80.6218 115.742 80.6186C115.112 80.6154 114.533 80.9492 114.024 81.2425C113.425 81.5878 112.923 81.8771 112.549 81.4955C111.95 80.8826 111.822 79.0587 111.763 78.2133C111.754 78.0838 111.746 77.9772 111.739 77.9015C111.684 77.3299 113.305 76.7113 115.665 76.7235C118.025 76.7357 119.638 77.371 119.577 77.9407C119.569 78.016 119.561 78.1217 119.55 78.2501C119.482 79.0942 119.333 80.9195 118.726 81.5269Z" fill="black"/>
<path fill-rule="evenodd" clip-rule="evenodd" d="M130.348 89.7798L121.635 86.062L115.591 90.3994L109.598 86L100.843 89.6301C104.944 92.6658 110.04 94.4758 115.569 94.5038C121.097 94.5313 126.212 92.7732 130.348 89.7798Z" fill="#FABB05"/>
<path fill-rule="evenodd" clip-rule="evenodd" d="M67.1678 74.8207C67.1134 84.2778 59.2099 91.9035 49.5142 91.855C39.8184 91.8065 32.003 84.1007 32.0574 74.6441C32.1112 65.1881 40.0147 57.5613 49.7098 57.6103C59.4056 57.6588 67.2215 65.3641 67.1678 74.8207Z" fill="white"/>
<path fill-rule="evenodd" clip-rule="evenodd" d="M43.4944 78.6805C45.0733 78.6066 46.2922 77.2967 46.2166 75.7549C46.1409 74.2136 44.799 73.0237 43.2201 73.0982C41.6406 73.1714 41.2451 74.4432 41.3208 75.9845C41.3965 77.5258 41.9149 78.7543 43.4944 78.6805ZM48.9645 90.8917C52.7797 91.0377 53.1225 87.3515 53.1225 87.3515L53.437 79.5384L45.4195 79.2308L45.1044 87.044C45.1044 87.044 45.1493 90.7451 48.9645 90.8917ZM52.9217 76.0124C52.7219 77.5433 53.832 78.9426 55.4003 79.1377C56.9685 79.3327 57.5845 78.1475 57.7837 76.6166C57.9835 75.0857 57.6915 73.7879 56.1232 73.5934C54.5544 73.3984 53.1209 74.4815 52.9217 76.0124Z" fill="#FFB74D"/>
<path fill-rule="evenodd" clip-rule="evenodd" d="M58.9195 88.0997L53.199 85.4468L49.074 88.182L45.1808 85.1381L39.2649 87.3451C41.928 89.444 45.2811 90.7544 48.9639 90.8955C52.6472 91.037 56.0956 89.9879 58.9195 88.0997Z" fill="#FFB74D"/>
<path fill-rule="evenodd" clip-rule="evenodd" d="M42.5609 75.1312C42.557 75.2279 42.5532 75.3242 42.5493 75.4202C42.3968 79.209 45.3572 83.9402 49.2386 84.0885C53.1194 84.238 56.4516 79.7486 56.6041 75.9603C56.608 75.8643 56.6119 75.768 56.6159 75.6713C56.8127 70.8673 57.0465 65.1612 50.0118 64.8914C42.9776 64.6216 42.7514 70.3276 42.5609 75.1312Z" fill="#FFCC80"/>
<path fill-rule="evenodd" clip-rule="evenodd" d="M49.4733 78.2694C49.8776 78.2844 50.2441 78.1141 50.4889 77.8366C50.5657 77.75 50.5025 77.6133 50.3848 77.6086L48.6167 77.5411C48.4997 77.5365 48.4252 77.6675 48.495 77.7598C48.7166 78.0559 49.069 78.2538 49.4733 78.2694ZM51.5345 79.9982C51.5238 80.2539 50.4267 80.5857 49.381 80.5453C48.3358 80.5049 47.2682 80.0906 47.2789 79.8349C47.285 79.6791 47.7194 79.7448 48.2721 79.8284L48.2721 79.8284C48.6281 79.8823 49.0333 79.9436 49.4046 79.9579C49.7762 79.9721 50.1852 79.9421 50.5447 79.9158L50.5447 79.9158C51.1025 79.8749 51.5409 79.8428 51.5345 79.9982Z" fill="#FF9800"/>
<path fill-rule="evenodd" clip-rule="evenodd" d="M47.199 74.9219C47.1872 75.2082 46.9407 75.4315 46.6475 75.4199C46.3543 75.409 46.1261 75.1678 46.1374 74.8816C46.1492 74.5953 46.3963 74.3726 46.6889 74.3836C46.9821 74.3951 47.2109 74.6363 47.199 74.9219ZM53.0705 75.1474C53.0587 75.4336 52.8122 75.6564 52.519 75.6454C52.2258 75.6344 51.9976 75.3932 52.0094 75.107C52.0207 74.8208 52.2678 74.5981 52.561 74.609C52.8536 74.6206 53.0823 74.8618 53.0705 75.1474Z" fill="black"/>
<path fill-rule="evenodd" clip-rule="evenodd" d="M43.2067 69.3336L42.5493 75.4202C42.5471 75.4748 42.5469 75.5293 42.5467 75.5841L42.5464 75.6389C42.2413 75.0296 41.9984 74.3931 41.8122 73.7491C41.4752 72.5812 41.3298 71.3913 41.3735 70.3053C41.5207 66.652 42.2543 63.2763 49.6388 61.7789C56.4232 60.4038 56.2441 66.1367 56.2441 66.1367C56.2441 66.1367 58.4029 65.622 58.1883 70.9504C58.144 72.037 57.904 73.2119 57.4736 74.3504C57.2366 74.9782 56.9428 75.5945 56.5899 76.1785L56.5928 76.1393C56.5972 76.0792 56.6017 76.0196 56.6041 75.9603L56.1276 69.6527C56.1276 69.6527 53.5006 66.5072 49.3107 68.6521C47.6428 69.5063 45.7341 69.432 43.4888 69.3445H43.4888L43.2067 69.3336ZM52.6875 73.0891C53.0593 73.1486 53.411 73.2917 53.7474 73.5133C54.0684 73.725 54.0589 73.8664 53.7616 73.7868C53.0156 73.5854 52.5687 73.4775 51.4579 73.4608C51.1488 73.4561 51.1434 73.2686 51.4272 73.1867C51.8747 73.0562 52.2926 73.0257 52.6875 73.0891ZM45.5942 73.2005C45.9471 73.0049 46.3089 72.8895 46.6854 72.8583C47.0838 72.826 47.4982 72.8883 47.9339 73.0522C48.2099 73.1561 48.1893 73.343 47.8807 73.324C46.7723 73.2553 46.3183 73.3286 45.5581 73.4717C45.2549 73.5283 45.2572 73.3869 45.5942 73.2005Z" fill="#676C72"/>
<path fill-rule="evenodd" clip-rule="evenodd" d="M58.9195 88.0997C56.0956 89.9879 52.6472 91.037 48.9639 90.8955C45.2811 90.7544 41.928 89.444 39.2649 87.3451L45.1808 85.1381L49.074 88.182L53.199 85.4468L58.9195 88.0997Z" fill="#4285F4"/>
<path fill-rule="evenodd" clip-rule="evenodd" d="M41.55 88.8566V86.4926L44.55 85.3734V90.1351C43.4989 89.8047 42.4952 89.3746 41.55 88.8566ZM50.55 90.883C50.0271 90.9115 49.498 90.916 48.964 90.8955C48.4869 90.8772 48.0153 90.8393 47.55 90.7826V86.9904L49.0741 88.182L50.55 87.2033V90.883ZM56.55 89.4176C55.595 89.8509 54.5913 90.1972 53.55 90.4465V85.6096L56.55 87.0008V89.4176Z" fill="#1C3867"/>
<path fill-rule="evenodd" clip-rule="evenodd" d="M58.2907 88.5C55.5905 90.1348 52.3781 91.0267 48.9638 90.8955C46.0129 90.7824 43.2736 89.9187 40.9314 88.5L58.2907 88.5Z" fill="#1C3867"/>
<path fill-rule="evenodd" clip-rule="evenodd" d="M39.2649 87.3451C40.1871 88.072 41.1921 88.7043 42.2649 89.2262V86.2259L39.2649 87.3451ZM45.2649 85.2039V90.3424C46.2311 90.5992 47.2339 90.7728 48.2649 90.8545V87.5494L45.2649 85.2039ZM51.2649 86.7293V90.829C52.2945 90.729 53.2976 90.5361 54.2649 90.2585V85.9412L53.199 85.4469L51.2649 86.7293Z" fill="black"/>
<path fill-rule="evenodd" clip-rule="evenodd" d="M198.999 74.2956C199.119 83.4079 191.381 90.8863 181.717 90.9987C172.053 91.1123 164.121 83.8167 164.001 74.7044C163.881 65.5926 171.619 58.1143 181.283 58.0013C190.947 57.8889 198.879 65.1838 198.999 74.2956Z" fill="white"/>
<path fill-rule="evenodd" clip-rule="evenodd" d="M186.991 78.7963C185.414 78.6805 184.237 77.7385 184.356 76.1943C184.474 74.6495 185.853 73.895 187.429 74.0108C189.005 74.1272 189.36 75.0091 189.242 76.5533C189.124 78.0975 188.567 78.9121 186.991 78.7963ZM176.728 78.9211C178.301 78.7671 179.453 77.7967 179.296 76.2554C179.139 74.7146 177.741 73.9938 176.168 74.1478C174.596 74.3018 174.263 75.1923 174.42 76.733C174.578 78.2738 175.155 79.0751 176.728 78.9211ZM178.759 85.7105L178.759 85.7106L178.684 79.7785L185.057 79.7009L185.132 85.6332L185.132 85.633L191.707 88.0671C189.005 90.0577 185.656 91.2543 182.016 91.2986C178.377 91.3425 174.999 90.2276 172.248 88.3034L178.759 85.7105Z" fill="#FFCC80"/>
<path fill-rule="evenodd" clip-rule="evenodd" d="M181.691 65.5914C175.611 65.665 175.555 71.2246 175.617 76.1056C175.665 79.9096 178.047 84.511 181.93 84.4641C185.813 84.4166 188.078 79.7596 188.03 75.955C187.968 71.0746 187.772 65.5173 181.691 65.5914Z" fill="#FFE0B2"/>
<path fill-rule="evenodd" clip-rule="evenodd" d="M185.283 75.3098C185.286 75.597 185.052 75.8327 184.758 75.8362C184.465 75.8396 184.225 75.6104 184.221 75.3226C184.217 75.0348 184.452 74.7992 184.745 74.7957C185.039 74.7922 185.279 75.0227 185.283 75.3098ZM179.409 75.3811C179.412 75.6683 179.178 75.904 178.885 75.9074C178.591 75.9115 178.35 75.6816 178.347 75.3939C178.343 75.1067 178.578 74.8704 178.871 74.867C179.164 74.8635 179.405 75.0939 179.409 75.3811Z" fill="black"/>
<path fill-rule="evenodd" clip-rule="evenodd" d="M181.861 79.0237C182.266 79.0185 182.623 78.8291 182.853 78.5385C182.925 78.4476 182.855 78.3144 182.736 78.3156L180.968 78.337C180.851 78.3387 180.783 78.4736 180.858 78.5628C181.095 78.8477 181.457 79.0283 181.861 79.0237ZM183.599 80.6572C183.602 80.9137 182.936 81.2964 181.89 81.3092C180.844 81.3213 180.168 80.956 180.166 80.6983C180.164 80.5502 180.421 80.584 180.821 80.6366C181.113 80.6751 181.482 80.7237 181.883 80.7186C182.283 80.714 182.65 80.6566 182.942 80.611L182.942 80.611C183.341 80.5487 183.597 80.5086 183.599 80.6572Z" fill="#FFA726"/>
<path fill-rule="evenodd" clip-rule="evenodd" d="M174.421 76.7333C174.552 78.0274 174.983 78.7969 176.049 78.9196C176.536 80.5976 177.425 82.1777 178.646 83.2181L171.493 83.305C171.493 83.305 172.907 72.8702 174.07 69.8275L174.167 69.5725C175.299 66.6012 176.506 63.4335 181.664 63.3711C186.821 63.308 188.108 66.4469 189.315 69.3912L189.418 69.6417C190.658 72.6542 192.334 83.0525 192.334 83.0525L185.182 83.1388C186.376 82.0682 187.224 80.4684 187.67 78.7789C188.731 78.6301 189.143 77.8496 189.242 76.5532C189.344 75.2123 189.09 74.3721 187.989 74.0977C187.976 73.7566 187.958 73.4173 187.936 73.0798C186.178 72.9779 183.234 71.9924 180.132 70.5785C178.856 69.9966 177.598 69.4222 176.751 68.8583C176.615 71.6971 175.621 73.8516 175.618 73.858C175.615 73.9871 175.613 74.1174 175.611 74.2476C174.518 74.5481 174.284 75.3952 174.421 76.7333ZM178.787 73.3391C178.413 73.3889 178.058 73.5232 177.715 73.7368C177.389 73.9412 177.394 74.0831 177.694 74.0107C178.445 73.8283 178.895 73.7322 180.005 73.7449C180.314 73.7484 180.325 73.5597 180.043 73.4699C179.6 73.3275 179.183 73.2864 178.787 73.3391ZM185.872 73.6379C185.525 73.4329 185.166 73.3073 184.791 73.2656C184.394 73.2227 183.978 73.2743 183.538 73.4277C183.259 73.5244 183.275 73.7126 183.584 73.701C184.693 73.6616 185.145 73.7467 185.9 73.9112C186.202 73.976 186.204 73.8342 185.872 73.6379Z" fill="#DF382B"/>
<path fill-rule="evenodd" clip-rule="evenodd" d="M185.209 73.64L185.113 73.6406C183.755 73.6576 182.757 74.0181 182.458 74.1392C182.262 74.0568 182.045 74.0105 181.818 74.0105L181.78 74.0122L181.798 74.011C181.563 74.0141 181.341 74.0656 181.141 74.1549C180.846 74.044 179.88 73.7216 178.571 73.7211L178.473 73.7217L178.473 73.7217C176.862 73.7422 175.759 74.2458 175.729 74.2594L175.728 74.2595L175.608 74.314L175.61 74.4443C175.626 75.5473 175.728 76.4082 176.15 77.0283C176.362 77.337 176.657 77.5749 177.038 77.7272C177.419 77.8795 177.882 77.9519 178.447 77.9519H178.526C179.092 77.9443 179.554 77.8714 179.935 77.7231C180.508 77.5025 180.885 77.0955 181.091 76.5611C181.298 76.0267 181.358 75.3695 181.358 74.5797C181.358 74.5542 181.358 74.5286 181.358 74.5029C181.496 74.4474 181.645 74.4164 181.803 74.4146H181.813L181.817 74.414C181.972 74.4146 182.116 74.442 182.25 74.4917C182.272 75.5338 182.383 76.3514 182.788 76.9473C182.999 77.2559 183.295 77.4944 183.676 77.6467C184.057 77.7996 184.52 77.8714 185.085 77.8714H185.166C185.73 77.8638 186.192 77.7903 186.573 77.6421C187.146 77.4221 187.523 77.015 187.728 76.4806C187.936 75.9473 187.996 75.2902 187.997 74.5016C187.997 74.4338 187.996 74.366 187.996 74.2971L187.995 74.2937L187.994 74.164L187.873 74.1119L187.87 74.111C187.814 74.0872 186.749 73.64 185.209 73.64ZM181.812 74.414L181.821 74.4134L181.817 74.414C181.815 74.414 181.813 74.414 181.812 74.414ZM178.473 73.7217L178.475 73.7217L178.477 73.9231L178.473 73.7217ZM187.585 74.5016C187.586 75.5276 187.469 76.2745 187.129 76.7371C186.959 76.9693 186.737 77.143 186.421 77.2675C186.104 77.3914 185.691 77.4614 185.161 77.4678L185.085 77.4684C184.555 77.4684 184.145 77.3989 183.832 77.2733C183.365 77.0822 183.097 76.7782 182.915 76.2994C182.747 75.8489 182.675 75.228 182.66 74.4813C182.872 74.3921 183.774 74.0604 185.118 74.0442L185.209 74.0436C185.952 74.0436 186.58 74.1542 187.021 74.2642C187.241 74.3198 187.415 74.3748 187.532 74.4159C187.567 74.428 187.568 74.4291 187.57 74.4305C187.571 74.4315 187.573 74.4326 187.585 74.4372V74.5016ZM180.946 74.5797C180.949 75.6069 180.83 76.355 180.491 76.8176C180.322 77.0503 180.1 77.224 179.782 77.3485C179.466 77.4713 179.054 77.5419 178.523 77.5477L178.523 77.5477L178.447 77.5483C177.917 77.5483 177.508 77.4794 177.195 77.3537C176.727 77.1627 176.458 76.8587 176.277 76.3799C176.109 75.931 176.041 75.3164 176.025 74.574C176.344 74.4498 177.262 74.1394 178.48 74.1252L178.571 74.1241C179.314 74.1241 179.943 74.2352 180.384 74.3452C180.603 74.4002 180.888 74.4797 180.946 74.5V74.5797ZM178.523 77.5477L178.526 77.5477V77.7498L178.523 77.5477Z" fill="#231F20"/>
<path fill-rule="evenodd" clip-rule="evenodd" d="M187.969 90.1353C187.37 89.1016 187.022 87.9095 187.006 86.6372C187.005 86.5734 187.009 86.5107 187.012 86.4484C187.014 86.4093 187.017 86.3704 187.018 86.3315L185.133 85.6332L185.132 85.6338C185.133 85.6384 185.796 88.527 181.982 88.5734C178.166 88.6197 178.759 85.7113 178.759 85.7113L176.892 86.4542C176.894 86.4939 176.897 86.5335 176.9 86.5731C176.905 86.6348 176.911 86.6966 176.911 86.7593C176.927 88.0319 176.609 89.2322 176.037 90.2801C177.896 90.9619 179.912 91.3239 182.016 91.2985C184.121 91.2729 186.128 90.8621 187.969 90.1353Z" fill="#292D33"/>
<path fill-rule="evenodd" clip-rule="evenodd" d="M181.572 46.5791L181.669 46.5797C185.754 46.5994 189.519 47.9264 192.569 50.1272L191.348 51.7525C188.627 49.792 185.292 48.6172 181.654 48.5981L181.572 48.5975C177.908 48.5981 174.538 49.7775 171.789 51.7589L170.567 50.133C173.647 47.9108 177.452 46.5785 181.572 46.5791ZM198.091 74.7948L199.121 74.8006L198.091 74.796V74.7948ZM198.091 74.7948C198.041 83.6964 190.647 90.8836 181.56 90.883H181.468C172.378 90.8379 165.04 83.609 165.041 74.7213V74.631C165.091 65.7276 172.484 58.5399 181.571 58.5405L181.645 58.5411H181.659C190.754 58.5856 198.092 65.8145 198.091 74.7028V74.7948ZM187.189 92.0523C194.667 89.7287 200.105 82.8993 200.152 74.8064L199.121 74.8006L200.152 74.8053L200.152 74.7028C200.152 64.7028 191.898 56.5742 181.669 56.5226H181.683L181.571 56.5221C171.351 56.5226 163.039 64.6032 162.981 74.6182L162.98 74.7213C162.98 82.9787 168.608 89.9595 176.327 92.1715L180.886 98.1726C181.299 98.7157 182.128 98.7157 182.54 98.1726L187.189 92.0523ZM175.455 55.4383C177.224 54.3261 179.316 53.677 181.57 53.677H181.614H181.629C183.861 53.6891 185.926 54.3376 187.678 55.4372L188.791 53.7384C186.729 52.442 184.276 51.6713 181.64 51.6586H181.655L181.57 51.658C178.909 51.658 176.425 52.4281 174.341 53.7395L175.455 55.4383Z" fill="#FABB05"/>
<path fill-rule="evenodd" clip-rule="evenodd" d="M115.867 24.8736H115.861C121.988 24.9032 127.636 26.904 132.212 30.2205L130.38 32.6698C126.297 29.7144 121.295 27.944 115.845 27.9153H115.838L115.715 27.9144C110.219 27.9153 105.164 29.6926 101.041 32.6776L99.2086 30.2292C103.828 26.8795 109.535 24.8718 115.715 24.8727L115.867 24.8736ZM140.494 69.5275L142.039 69.5362L140.494 69.5292V69.5275ZM140.494 69.5275C140.418 82.942 129.328 93.7738 115.697 93.7729H115.568C101.925 93.704 90.9184 82.8111 90.9193 69.4166V69.2797C90.9947 55.8634 102.086 45.0316 115.716 45.0324L115.825 45.0333H115.845C129.488 45.1014 140.495 55.9943 140.494 69.3887V69.5275ZM123.755 95.6524C135.17 92.2682 143.514 81.8802 143.585 69.5449L142.039 69.5362L143.585 69.5432L143.586 69.3887C143.585 54.319 131.205 42.0693 115.861 41.9916H115.883L115.716 41.9907C100.386 41.9916 87.9152 54.1698 87.8283 69.2622L87.8274 69.4166C87.8281 81.7944 96.1794 92.2686 107.664 95.6606L114.466 104.657C115.084 105.475 116.328 105.475 116.947 104.657L123.755 95.6524ZM106.539 38.2233C109.194 36.5463 112.331 35.5691 115.713 35.5682H115.778L115.795 35.5691C119.149 35.5874 122.246 36.5638 124.874 38.2216L126.544 35.6616C123.451 33.7079 119.772 32.5466 115.817 32.5274H115.84L115.713 32.5265C111.721 32.5265 107.995 33.687 104.869 35.6633L106.539 38.2233Z" fill="#DF382B"/>
<path fill-rule="evenodd" clip-rule="evenodd" d="M49.6861 46.5777C53.7708 46.5973 57.5363 47.9199 60.5866 50.1133L59.3653 51.7342C56.6437 49.7792 53.3091 48.6083 49.6754 48.5893H49.6707L49.5891 48.5887C45.9247 48.5893 42.5546 49.7647 39.8065 51.7394L38.5846 50.1202C41.6644 47.9043 45.4689 46.5766 49.5891 46.5771L49.6861 46.5777ZM66.1103 74.7304L67.1407 74.7362L66.1103 74.731V74.7304ZM66.1103 74.7304C66.0607 83.6019 58.6674 90.7647 49.5805 90.7641H49.493C40.3978 90.7191 33.0601 83.5147 33.0607 74.6571L33.0613 74.5659C33.1109 65.6939 40.5042 58.5305 49.5905 58.5311L49.6644 58.5316H49.678C58.7732 58.5761 66.1109 65.7805 66.1103 74.6381V74.7304ZM55.0348 91.9826C62.6026 89.7192 68.1239 82.87 68.171 74.7419L67.1407 74.7362L68.171 74.7414L68.1716 74.6381C68.171 64.6725 59.9176 56.5714 49.6887 56.5201H49.7023L49.5905 56.5195C39.371 56.5201 31.0579 64.5733 31 74.5544V74.6571C31.0005 82.6439 36.3001 89.4322 43.6693 91.8409L48.579 98.2823C48.9916 98.8235 49.8204 98.8235 50.233 98.2823L55.0348 91.9826ZM43.4717 55.4064C45.2416 54.2974 47.3348 53.6511 49.5905 53.6511H49.6296H49.6461C51.8782 53.6632 53.9431 54.3095 55.6952 55.4053L56.8083 53.7122C54.7464 52.4202 52.2932 51.6522 49.6567 51.6395H49.6733L49.5905 51.6389C46.9281 51.6389 44.443 52.4058 42.358 53.7134L43.4717 55.4064Z" fill="#4285F4"/>
</svg>
