<svg width="232" height="142" viewBox="0 0 232 142" fill="none" xmlns="http://www.w3.org/2000/svg">
<path fill-rule="evenodd" clip-rule="evenodd" d="M91.5443 118.765C62.219 118.765 38.4458 117.758 38.4458 116.515C38.4458 115.272 62.219 114.265 91.5443 114.265C120.869 114.265 144.643 115.273 144.643 116.515C144.643 117.758 120.869 118.765 91.5443 118.765ZM175.325 118.666C187.577 118.666 197.51 117.771 197.51 116.666C197.51 115.561 187.577 114.666 175.325 114.666C163.074 114.666 153.14 115.561 153.14 116.666C153.14 117.771 163.074 118.666 175.325 118.666Z" fill="#EEEEEE"/>
<path fill-rule="evenodd" clip-rule="evenodd" d="M176.31 114.22C174.953 115.032 179.319 116.062 181.416 115.359C182.495 115.359 184.857 114.045 184.452 113.019C183.119 109.644 183.108 109.39 183.01 107.165C182.923 105.192 182.768 101.668 181.561 93.0374C181.427 91.8597 181.116 89.8564 179.936 89.99C178.754 90.1247 177.388 91.1869 177.3 92.0032C177.657 94.0769 177.988 95.9306 178.285 97.5928C180.394 109.407 180.776 111.546 176.31 114.22ZM166.288 114.22C164.931 115.032 169.298 116.062 171.394 115.359C172.473 115.359 174.72 114.083 174.431 113.019C173.856 110.911 173.61 110.088 173.595 109.261C173.566 107.59 174.487 105.901 175.569 93.5464C175.703 92.3682 175.341 90.2307 174.161 90.0966C172.979 89.9624 171.917 90.8094 171.648 91.5852C171.513 93.9916 171.411 96.1089 171.32 97.9794C170.772 109.348 170.663 111.6 166.288 114.22Z" fill="#F7C1AB"/>
<path fill-rule="evenodd" clip-rule="evenodd" d="M174.387 112.889C174.364 112.864 172.963 113.751 171.524 113.626C169.528 113.453 168.487 112.283 168.487 112.283C166.448 113.973 165.044 114.363 163.324 114.926C162.158 115.308 161.992 116.605 163.464 116.605H165.93C169.027 116.605 172.749 116.587 172.749 116.587H173.737C174.691 116.587 176.051 114.715 174.387 112.889Z" fill="#103947"/>
<path fill-rule="evenodd" clip-rule="evenodd" d="M172.951 73.7442L172.987 73.7417H179.625C179.789 73.7417 179.912 73.8917 179.88 74.0524C179.846 74.2242 179.782 74.5485 179.691 75.0059C179.541 75.7684 179.374 76.6253 179.194 77.5572C178.679 80.2196 178.165 82.9493 177.684 85.5909C177.562 86.263 177.444 86.9221 177.329 87.5665C176.62 91.5485 176.086 94.8312 175.78 97.173C175.441 99.7569 175.328 101.209 175.15 104.469C175.123 104.974 175.104 105.3 175.083 105.635C174.974 107.417 174.835 108.802 174.579 110.431C174.56 110.557 174.452 110.65 174.325 110.651L168.954 110.691C168.808 110.692 168.69 110.572 168.692 110.426L168.699 110.08L168.716 109.101C168.735 108.048 168.757 106.873 168.781 105.609C168.848 101.996 168.919 98.3832 168.99 95.0111C169.029 93.1385 169.067 91.391 169.104 89.7919C169.23 84.2753 169.334 80.7727 169.406 79.831C169.668 76.4278 171.077 74.0086 172.951 73.7442Z" fill="#103947"/>
<path fill-rule="evenodd" clip-rule="evenodd" d="M184.409 112.889C184.385 112.864 182.985 113.751 181.546 113.626C179.55 113.453 178.509 112.283 178.509 112.283C176.47 113.973 175.065 114.363 173.346 114.926C172.179 115.308 172.014 116.605 173.486 116.605H175.952C179.05 116.605 182.771 116.587 182.771 116.587H183.758C184.713 116.587 186.072 114.715 184.409 112.889Z" fill="#1D5067"/>
<path fill-rule="evenodd" clip-rule="evenodd" d="M180.008 73.7442L179.971 73.7417H173.333C173.176 73.7417 173.055 73.8801 173.076 74.0358L173.229 75.186L173.632 78.2207C174.049 81.3616 174.466 84.5068 174.855 87.4485L174.87 87.5551C175.397 91.5406 175.83 94.8265 176.137 97.173C176.548 100.311 176.841 102.029 177.534 105.667C177.6 106.015 177.643 106.239 177.686 106.471C177.972 107.981 178.174 109.125 178.379 110.431C178.399 110.557 178.506 110.65 178.634 110.651L184.005 110.691C184.152 110.692 184.271 110.57 184.266 110.423L184.257 110.13L184.232 109.288C184.205 108.373 184.174 107.328 184.142 106.171C184.048 102.865 183.955 99.3269 183.867 95.6988C183.778 91.9762 183.7 88.366 183.637 84.9455C183.605 83.1784 183.577 81.4764 183.553 79.8472C183.505 76.5475 181.966 74.0206 180.008 73.7442Z" fill="#1D5067"/>
<path fill-rule="evenodd" clip-rule="evenodd" d="M174.325 110.651C174.452 110.65 174.56 110.557 174.58 110.432C174.758 109.294 174.847 108.726 174.935 108.163C174.959 108.006 174.837 107.863 174.678 107.863H169.148C169.013 107.863 168.9 107.967 168.889 108.101C168.835 108.733 168.787 109.301 168.745 109.797C168.72 110.094 168.703 110.301 168.694 110.409C168.681 110.562 168.802 110.692 168.954 110.691L174.325 110.651ZM178.375 110.408C178.184 109.19 178.134 108.871 178.085 108.552L178.024 108.163C178 108.006 178.121 107.863 178.281 107.863H183.811C183.945 107.863 184.058 107.967 184.069 108.101L184.213 109.797L184.265 110.409C184.278 110.561 184.157 110.692 184.004 110.691L178.633 110.651C178.506 110.65 178.398 110.557 178.379 110.432L178.375 110.408Z" fill="#8FA3AD"/>
<path fill-rule="evenodd" clip-rule="evenodd" d="M181.89 58.814L181.773 74.6729C181.773 74.6729 177.283 78.5725 169.864 77.6626L169.845 67.2314C169.274 67.7026 168.801 68.0883 168.489 68.3357C167.733 68.9342 166.572 69.1525 165.804 68.565C165.761 68.5324 165.721 68.4987 165.683 68.4638C165.595 68.4027 165.512 68.3335 165.436 68.2561C163.54 66.3349 158.494 59.1737 158.494 59.1737C157.851 58.6511 157.752 57.7053 158.277 57.0637C158.8 56.4205 159.749 56.3238 160.393 56.8453L167.425 64.3983L174.244 57.434C174.427 57.1956 174.645 57.001 174.887 56.8521L174.889 56.8491C175.521 56.0853 176.531 55.7473 177.497 55.975L179.901 56.5449C180.981 56.8007 181.779 57.7117 181.89 58.814Z" fill="#5CC78C"/>
<path fill-rule="evenodd" clip-rule="evenodd" d="M163.983 56.4606C163.363 55.911 162.411 55.9661 161.858 56.5849C161.306 57.2036 161.363 58.152 161.982 58.7005C161.982 58.7005 166.335 65.3252 168.142 67.3291C168.224 67.4198 168.314 67.5005 168.412 67.5713C168.754 67.8456 169.188 67.9612 169.632 67.9519C169.951 67.9532 170.27 67.8886 170.558 67.759C170.72 67.6939 170.876 67.6135 171.02 67.52C173.036 66.2155 181.295 60.4628 181.295 60.4628C182.194 59.4941 182.137 57.9795 181.166 57.08C180.193 56.1805 178.68 56.2382 177.777 57.2079L170.267 63.5552L163.983 56.4606Z" fill="#78EAA9"/>
<path fill-rule="evenodd" clip-rule="evenodd" d="M184.898 53.4424C182.389 47.5311 182.586 43.5613 182.586 43.5613C182.071 39.3549 178.218 36.1567 174.007 36.6704C169.795 37.1846 166.865 41 167.38 45.2059C167.38 45.2059 169.079 51.7161 167.981 55.8268C167.981 55.8268 168.203 55.9012 168.594 56.0052C168.704 55.296 168.747 54.8509 168.875 53.7647C168.854 54.8457 168.859 55.5336 168.841 56.0671C170.201 56.4055 173.025 56.9348 176.211 56.5132C180.806 55.9069 184.898 53.4424 184.898 53.4424Z" fill="#444545"/>
<path fill-rule="evenodd" clip-rule="evenodd" d="M179.957 53.266C181.688 51.7368 182.672 49.4163 182.394 46.947L181.929 43.1369C181.477 39.1109 177.843 36.2122 173.809 36.6651C169.779 37.1174 166.878 40.7477 167.33 44.7742L167.797 48.5838C168.212 52.2917 171.328 55.0424 174.967 55.1012C174.97 56.5395 174.973 57.7422 174.973 57.6943C175.031 57.752 179.453 56.3929 179.453 56.3929V53.6729C179.627 53.5445 179.795 53.4086 179.957 53.266Z" fill="#F7C1AB"/>
<path fill-rule="evenodd" clip-rule="evenodd" d="M182.267 45.2111L181.73 42.1012C180.523 37.5995 175.427 37.2069 175.725 38.577C175.733 38.6116 175.863 38.635 176.075 38.673C177.051 38.8479 179.751 39.332 180.122 42.6403L180.588 46.4495C180.865 48.9192 179.882 51.2398 178.151 52.7679C177.057 53.7334 175.668 54.3834 174.109 54.5581C173.612 54.6139 173.307 54.7163 173.166 54.846C174.036 55.0827 174.964 55.1623 175.915 55.0555C177.474 54.8813 178.865 54.2298 179.957 53.2663C181.688 51.7371 182.671 49.4161 182.394 46.9469L182.267 45.2111Z" fill="#F2989B"/>
<path fill-rule="evenodd" clip-rule="evenodd" d="M182.108 43.0473C181.825 40.5237 180.222 38.4792 178.072 37.4154C177.034 36.902 175.869 36.6171 174.664 36.6171C174.381 36.6171 174.096 36.6332 173.81 36.6649C173.702 36.677 173.595 36.6914 173.488 36.708C169.691 37.3018 166.984 40.7362 167.31 44.5744C168.034 44.653 168.777 44.6538 169.531 44.5692C171.838 44.3112 173.875 43.2945 175.42 41.796C176.873 45.3721 180.722 46.4968 180.722 46.4968C180.722 46.4968 179.486 45.5112 178.438 43.9525C179.151 44.3575 179.917 44.6761 180.72 44.896C181.222 45.0338 181.739 45.1328 182.265 45.19L182.108 43.0473ZM176.233 46.3126C176.358 46.2543 176.413 46.1056 176.355 45.9804C176.114 45.4643 175.57 45.1516 174.996 45.2156C174.422 45.2808 173.963 45.705 173.842 46.2604C173.812 46.3953 173.898 46.5285 174.033 46.5579C174.168 46.5873 174.301 46.5018 174.33 46.3669C174.406 46.0186 174.694 45.7532 175.052 45.7124C175.411 45.6725 175.751 45.8682 175.901 46.1913C175.959 46.3165 176.108 46.3708 176.233 46.3126ZM170.954 46.5866C171.012 46.7118 170.957 46.8605 170.832 46.9185C170.707 46.9766 170.558 46.9221 170.5 46.7968C170.35 46.4722 170.011 46.2772 169.651 46.3188C169.293 46.3584 169.005 46.6238 168.93 46.973C168.901 47.108 168.768 47.1939 168.633 47.1649C168.498 47.1359 168.412 47.0029 168.441 46.8679C168.561 46.3105 169.022 45.8852 169.595 45.822C170.17 45.7555 170.713 46.0682 170.954 46.5866Z" fill="#444545"/>
<path fill-rule="evenodd" clip-rule="evenodd" d="M172.654 46.2454C172.805 47.4771 173.928 48.3533 175.161 48.203C176.251 48.07 177.063 47.178 177.132 46.1218L180.853 45.6679L180.992 45.604L181.424 45.2078C181.603 45.0434 181.466 44.7459 181.224 44.7754L177.03 45.288C176.709 44.2795 175.705 43.6091 174.615 43.7421C173.683 43.8556 172.954 44.5232 172.718 45.3742C172.507 45.3385 172.291 45.333 172.076 45.3593C171.859 45.386 171.65 45.4433 171.454 45.5287C171.02 44.7598 170.152 44.287 169.221 44.4006C168.129 44.5341 167.317 45.4255 167.248 46.4821L166.999 46.5125C166.862 46.5293 166.765 46.6539 166.782 46.7909L166.823 47.1288C166.839 47.266 166.964 47.3636 167.101 47.3468L167.35 47.3163C167.673 48.3251 168.676 48.9949 169.766 48.8615C171 48.7112 171.877 47.5902 171.726 46.3581C171.71 46.231 171.684 46.1078 171.649 45.989C171.803 45.9216 171.966 45.8765 172.136 45.8556C172.305 45.835 172.474 45.8396 172.64 45.868C172.634 45.992 172.639 46.1181 172.654 46.2454ZM176.624 45.7609C176.507 44.8036 175.634 44.1214 174.675 44.2384C173.716 44.3553 173.033 45.2269 173.15 46.1846C173.268 47.1421 174.141 47.8236 175.1 47.7067C176.059 47.5897 176.741 46.7181 176.624 45.7609ZM171.23 46.4191L171.229 46.4189C171.112 45.462 170.24 44.78 169.281 44.8969C168.321 45.0143 167.639 45.8854 167.756 46.8431C167.874 47.801 168.747 48.4826 169.706 48.3652C170.665 48.2483 171.347 47.3768 171.23 46.4191Z" fill="#6C1D1F"/>
<path fill-rule="evenodd" clip-rule="evenodd" d="M183.692 45.4096C183.794 46.2472 183.198 47.0084 182.358 47.1108C181.52 47.2133 180.758 46.6174 180.656 45.7803C180.554 44.9437 181.149 44.1825 181.989 44.079C182.827 43.9766 183.589 44.573 183.692 45.4096Z" fill="#F2989B"/>
<path d="M171.14 50.8987C171.021 50.8283 170.982 50.6749 171.052 50.5561C171.123 50.4374 171.276 50.3982 171.395 50.4686C171.948 50.7968 172.601 50.8855 173.223 50.7C173.623 50.5801 173.973 50.3584 174.248 50.0571C174.341 49.9551 174.499 49.9478 174.601 50.0409C174.703 50.1339 174.71 50.292 174.617 50.394C174.282 50.7619 173.854 51.0329 173.366 51.179C172.608 51.4052 171.811 51.2969 171.14 50.8987Z" fill="#F05B5B"/>
<path fill-rule="evenodd" clip-rule="evenodd" d="M158.517 52.1781C158.542 52.4641 158.795 52.6753 159.08 52.65C159.826 52.584 160.216 52.6328 160.715 53.1159C160.358 53.2901 159.994 53.6151 159.618 54.0629C158.577 55.3021 159.926 56.6126 161.218 57.8681C161.376 58.0218 161.534 58.1747 161.686 58.3264L164.113 56.6215C163.679 56.013 163.422 55.3901 163.225 54.9114C163.118 54.6527 163.029 54.436 162.938 54.2865C162.773 54.014 162.609 53.7869 162.446 53.6024C161.143 51.8174 160.548 51.4766 158.989 51.6146C158.703 51.6399 158.492 51.8922 158.517 52.1781Z" fill="#F7C1AB"/>
<path fill-rule="evenodd" clip-rule="evenodd" d="M160.323 58.1439L158.414 58.7128C158.005 58.8347 157.573 58.6046 157.447 58.1966L155.163 50.8352C155.034 50.4209 155.268 49.9814 155.684 49.8572L157.592 49.2868C158.002 49.1644 158.433 49.3945 158.56 49.8027L160.845 57.1657C160.974 57.5802 160.739 58.02 160.323 58.1439Z" fill="#444545"/>
<path fill-rule="evenodd" clip-rule="evenodd" d="M155.014 53.7017C154.951 53.4218 155.126 53.1433 155.406 53.0797C155.686 53.0161 155.964 53.1914 156.028 53.4713L156.289 54.622C157.257 54.2145 158.245 54.3356 158.95 54.9637C159.95 55.8545 159.927 57.3665 158.776 58.5384C157.796 59.5351 156.672 59.3475 155.457 58.0019C154.708 57.1748 154.553 55.9355 155.127 55.3955C155.201 55.3251 155.277 55.2584 155.354 55.1954L155.014 53.7017Z" fill="#F7C1AB"/>
<path fill-rule="evenodd" clip-rule="evenodd" d="M117.151 48.502C118.186 48.502 119.026 47.6639 119.026 46.6302V29.1438C119.026 28.1102 118.186 27.272 117.151 27.272H98.5137C97.4781 27.272 96.6394 28.1102 96.6394 29.1438V46.6302C96.6394 47.6639 97.4781 48.502 98.5137 48.502H106.77L107.952 50.8613L109.132 48.502H117.151Z" fill="#EDEDED"/>
<path fill-rule="evenodd" clip-rule="evenodd" d="M93.8963 51.9685C94.9313 51.9685 95.7705 51.1304 95.7705 50.0967V32.6103C95.7705 31.5767 94.9313 30.7385 93.8963 30.7385H75.2586C74.223 30.7385 73.3843 31.5767 73.3843 32.6103V50.0967C73.3843 51.1304 74.223 51.9685 75.2586 51.9685H83.5151L84.6966 54.3278L85.8773 51.9685H93.8963Z" fill="#EDEDED"/>
<path fill-rule="evenodd" clip-rule="evenodd" d="M53.0054 97.0255C53.0054 96.3079 53.5871 95.7261 54.3047 95.7261C55.0224 95.7261 55.6041 96.3079 55.6041 97.0255V115.744C55.6041 116.461 55.0224 117.043 54.3047 117.043C53.5871 117.043 53.0054 116.461 53.0054 115.744V97.0255ZM81.1197 97.0255C81.1197 96.3079 81.7014 95.7261 82.419 95.7261C83.1366 95.7261 83.7184 96.3079 83.7184 97.0255V115.744C83.7184 116.461 83.1366 117.043 82.419 117.043C81.7014 117.043 81.1197 116.461 81.1197 115.744V97.0255ZM102.243 95.7261C101.525 95.7261 100.943 96.3079 100.943 97.0255V115.744C100.943 116.461 101.525 117.043 102.243 117.043C102.96 117.043 103.542 116.461 103.542 115.744V97.0255C103.542 96.3079 102.96 95.7261 102.243 95.7261ZM129.058 97.0255C129.058 96.3079 129.639 95.7261 130.357 95.7261C131.075 95.7261 131.656 96.3079 131.656 97.0255V115.744C131.656 116.461 131.075 117.043 130.357 117.043C129.639 117.043 129.058 116.461 129.058 115.744V97.0255Z" fill="#536D79"/>
<path fill-rule="evenodd" clip-rule="evenodd" d="M43.5688 103.22L34.1973 65.7834C33.2118 61.8465 36.1892 58.0319 40.2476 58.0319H102.243C105.104 58.0319 107.598 59.9787 108.293 62.7543L117.664 100.191C118.65 104.127 115.673 107.942 111.614 107.942H49.619C46.7578 107.942 44.2636 105.995 43.5688 103.22Z" fill="#AFBDC4"/>
<path fill-rule="evenodd" clip-rule="evenodd" d="M78.7573 92.4434C78.7573 85.8568 81.287 73.4004 89.8046 70.419C95.1359 68.5529 94.0322 64.0366 93.3642 63.4912C93.3434 63.4668 93.0643 63.4501 90.6761 64.2373C88.6097 64.9185 88.6202 62.1435 84.5217 63.1912C80.4082 64.2425 79.962 71.5228 75.7902 73.1633C72.1629 74.5905 64.798 79.75 67.6563 92.4434H78.7573Z" fill="#FD5959"/>
<path fill-rule="evenodd" clip-rule="evenodd" d="M87.7718 66.2318C87.6932 65.8954 87.814 65.5746 88.042 65.5169C88.269 65.4571 88.5174 65.6827 88.597 66.0197C88.6751 66.3566 88.5538 66.6774 88.3268 66.7367C88.0998 66.7949 87.8504 66.5682 87.7718 66.2318ZM90.8433 64.3795C90.8683 64.4367 91.4837 65.7766 93.5324 65.7766C93.6214 65.7766 93.7125 65.7746 93.8088 65.7694C93.9713 65.7574 93.9655 65.5978 93.9619 65.5125C93.9541 65.2936 93.8604 63.3771 93.0831 63.3771C93.03 63.3771 92.9774 63.3864 92.9201 63.4057C92.9034 63.4114 90.9354 64.1596 90.9354 64.1596C90.8933 64.1752 90.8594 64.208 90.8417 64.2501C90.8246 64.2917 90.8251 64.3385 90.8433 64.3795Z" fill="#434343"/>
<path fill-rule="evenodd" clip-rule="evenodd" d="M73.0635 91.2559C74.7118 77.5745 81.7461 78.5499 81.7461 78.5499C79.5516 83.2253 78.7582 88.7539 78.7582 92.4434H74.2516L73.0635 91.2559Z" fill="#CD3020"/>
<path fill-rule="evenodd" clip-rule="evenodd" d="M87.0296 92.6115C87.9407 92.6115 88.6785 91.8753 88.6785 90.9649C88.6785 90.1241 88.0475 89.431 87.2327 89.3307C86.0769 88.5029 83.7434 82.6675 82.1763 76.6549C81.9472 75.7746 81.0465 75.2474 80.1661 75.4761C79.2841 75.7044 78.7557 76.6039 78.9853 77.4837C79.0228 77.6292 79.924 81.0729 81.1933 84.5783C83.2602 90.2843 84.9513 92.6115 87.0296 92.6115Z" fill="#FD5959"/>
<path fill-rule="evenodd" clip-rule="evenodd" d="M82.8279 75.6462L84.0295 74.364L78.9018 70.2247L77.7476 71.7066L82.8279 75.6462Z" fill="#487BFA"/>
<path fill-rule="evenodd" clip-rule="evenodd" d="M85.9999 66.665C85.9999 65.6802 85.1992 64.8826 84.2126 64.8842C83.2254 64.8862 82.4263 65.6859 82.4263 66.6707C82.4263 70.3842 81.3735 72.5196 81.3735 75.6876C81.3735 77.2532 82.6642 78.5135 84.2344 78.5011C85.8041 78.487 87.0578 77.2064 87.0578 75.6408C87.0578 72.4572 85.9999 70.3254 85.9999 66.665Z" fill="#7E2D2B"/>
<path fill-rule="evenodd" clip-rule="evenodd" d="M38.7332 58.2186C35.3917 59.055 33.361 62.4419 34.1974 65.7834L43.5689 103.22C44.4053 106.561 47.7922 108.592 51.1337 107.755C54.4752 106.919 56.5059 103.532 55.6694 100.191L46.298 62.7543C45.4615 59.4128 42.0746 57.3821 38.7332 58.2186Z" fill="#CED7DB"/>
<path fill-rule="evenodd" clip-rule="evenodd" d="M135.043 107.942H106.929C102.87 107.942 99.8927 104.127 100.878 100.19L105.564 81.4723C106.259 78.6968 108.753 76.7499 111.614 76.7499H139.729C143.787 76.7499 146.764 80.5646 145.779 84.5015L141.093 103.22C140.398 105.995 137.904 107.942 135.043 107.942Z" fill="#CED7DB"/>
<path fill-rule="evenodd" clip-rule="evenodd" d="M141.243 76.9366C137.902 76.1002 134.515 78.1309 133.678 81.4724L128.993 100.19C128.156 103.532 130.187 106.919 133.528 107.755C136.87 108.592 140.257 106.561 141.093 103.22L145.779 84.5015C146.615 81.16 144.585 77.7731 141.243 76.9366Z" fill="#F4F4F5"/>
<path fill-rule="evenodd" clip-rule="evenodd" d="M110.928 79.912C110.301 79.912 109.623 79.8678 108.89 79.7685L109.381 76.1616C112.415 76.5744 113.896 75.6349 115.46 74.804C116.61 74.1925 117.913 73.5977 119.637 73.5977V76.8074C118.86 76.8074 118.226 77.1245 117.172 77.684C115.752 78.4395 113.897 79.912 110.928 79.912Z" fill="#CD3020"/>
<path fill-rule="evenodd" clip-rule="evenodd" d="M119.548 73.6106C122.499 73.6106 124.234 76.8166 124.234 76.8166H119.548V73.6106Z" fill="#F7C1AB"/>
<path fill-rule="evenodd" clip-rule="evenodd" d="M103.712 74.0453C101.807 72.7365 100.549 70.5528 100.525 68.0679L100.524 65.7895C100.483 61.7381 103.739 58.4213 107.797 58.3818C111.852 58.3423 115.174 61.5941 115.214 65.6455V67.9239C115.248 71.4038 112.851 74.3417 109.603 75.1264V77.8784L105.108 76.2665V74.796C104.614 74.5956 104.146 74.3431 103.712 74.0453Z" fill="#F7C1AB"/>
<path fill-rule="evenodd" clip-rule="evenodd" d="M109.603 76.2104V77.8783L105.108 76.2665V76.2415C104.382 76.754 103.718 77.6858 103.441 79.3623C103.129 81.2512 102.281 86.9343 102.281 86.9343L112.031 87.7792L111.251 79.4923C111.251 77.8052 110.602 76.7766 109.603 76.2104Z" fill="#EA4335"/>
<path fill-rule="evenodd" clip-rule="evenodd" d="M110.644 74.7901C110.487 74.6789 110.173 74.6143 109.673 74.6192C108.104 74.6343 106.646 74.1575 105.444 73.3323C103.539 72.0241 102.281 69.8403 102.258 67.355L102.256 65.0771C102.223 61.7473 104.846 60.9407 105.793 60.6496C105.998 60.5865 106.124 60.5476 106.128 60.5125C106.258 59.1149 101.247 60.1225 100.596 64.7371L100.457 67.2255L100.525 68.0681C100.549 70.553 101.807 72.7368 103.712 74.0449C104.914 74.8696 106.372 75.3469 107.941 75.3313C108.898 75.322 109.809 75.1305 110.644 74.7901Z" fill="#F2989B"/>
<path d="M111.66 70.6688C111.769 70.5844 111.926 70.6046 112.01 70.7139C112.095 70.8231 112.075 70.9801 111.965 71.0645C111.348 71.5416 110.569 71.7456 109.79 71.6128C109.288 71.5277 108.831 71.3105 108.452 70.9853C108.347 70.8955 108.335 70.7377 108.424 70.6328C108.514 70.5279 108.672 70.5157 108.777 70.6055C109.089 70.8725 109.462 71.0501 109.873 71.1199C110.513 71.2289 111.151 71.0617 111.66 70.6688Z" fill="#F05B5B"/>
<path fill-rule="evenodd" clip-rule="evenodd" d="M103.194 56.1579C103.194 57.3692 103.832 58.4317 104.79 59.0284C104.394 59.2022 104.015 59.4083 103.657 59.6433C103.325 59.8618 103.01 60.1053 102.717 60.3711C102.731 60.2468 102.738 60.1205 102.738 59.9925C102.738 58.1259 101.223 56.6128 99.3539 56.6128C97.4848 56.6128 95.9697 58.1259 95.9697 59.9925C95.9697 61.8591 97.4848 63.3721 99.3539 63.3721C99.8904 63.3721 100.398 63.2474 100.849 63.0255C100.509 63.8589 100.326 64.7683 100.336 65.7222L100.508 67.8522C100.999 67.7334 101.477 67.5782 101.937 67.3895C102.707 67.0738 103.429 66.6646 104.088 66.1761C103.236 67.8503 102.13 68.9785 102.13 68.9785C102.13 68.9785 105.814 67.3959 106.822 63.6697C108.538 64.9698 110.684 65.7324 113.005 65.7091C113.763 65.7018 114.501 65.6109 115.21 65.4452C115.079 61.9083 112.447 59.0205 109.042 58.4745C109.612 57.8696 109.962 57.0545 109.962 56.1579C109.962 54.2912 108.447 52.7782 106.578 52.7782C104.709 52.7782 103.194 54.2912 103.194 56.1579ZM112.312 67.6477C112.269 67.779 112.128 67.8508 111.997 67.808C111.866 67.7653 111.794 67.6242 111.837 67.4929C112.038 66.8733 112.611 66.4444 113.27 66.4395C113.93 66.4328 114.512 66.8508 114.723 67.4655C114.768 67.596 114.699 67.7383 114.568 67.7833C114.438 67.8282 114.296 67.7589 114.251 67.6283C114.108 67.2155 113.718 66.935 113.275 66.9395C112.832 66.9428 112.448 67.2305 112.312 67.6477ZM106.449 67.7109C106.407 67.8422 106.266 67.9142 106.135 67.8716C106.003 67.829 105.931 67.688 105.974 67.5567C106.175 66.937 106.746 66.5087 107.408 66.502C108.066 66.4953 108.647 66.9135 108.861 67.5277C108.906 67.6581 108.837 67.8006 108.707 67.846C108.576 67.8914 108.434 67.8224 108.389 67.692C108.245 67.2785 107.855 66.9974 107.413 67.0019C106.968 67.0064 106.585 67.2939 106.449 67.7109Z" fill="#444545"/>
<path fill-rule="evenodd" clip-rule="evenodd" d="M99.0503 68.2593C99.0503 69.1027 99.7344 69.7864 100.579 69.7864C101.424 69.7864 102.109 69.1027 102.109 68.2593C102.109 67.416 101.424 66.7322 100.579 66.7322C99.7344 66.7322 99.0503 67.416 99.0503 68.2593Z" fill="#F2989B"/>
<path fill-rule="evenodd" clip-rule="evenodd" d="M110.34 84.2874C113.518 85.3959 114.707 87.9223 114.707 87.9223L110.036 87.4798L110.34 84.2874Z" fill="#F7C1AB"/>
<path fill-rule="evenodd" clip-rule="evenodd" d="M111.375 87.9198C111.245 87.9198 110.58 87.7743 109.895 87.5408C105.448 86.0241 104.248 84.6379 103.636 79.0282C103.528 78.0294 104.25 77.1309 105.251 77.0223C106.249 76.91 107.15 77.6363 107.26 78.6346C107.754 83.1706 108.637 83.4675 112.39 84.8979L111.375 87.9198Z" fill="#CD3020"/>
<path fill-rule="evenodd" clip-rule="evenodd" d="M102.281 86.7606C102.281 86.7606 119.288 88.2342 119.939 88.2664C120.589 88.2991 118.442 92.3937 118.442 92.3937H107.183C103.302 92.3937 101.846 90.119 102.281 86.7606Z" fill="#5CC78C"/>
<path fill-rule="evenodd" clip-rule="evenodd" d="M115.705 92.3935C116.756 92.3935 117.606 91.5439 117.606 90.4957V85.7387C117.606 84.6905 116.756 83.8409 115.705 83.8409C114.656 83.8409 113.903 84.2802 113.284 85.9373C112.809 87.2117 112.699 88.1039 112.699 92.3935H115.705ZM121.432 92.3935C122.483 92.3935 123.333 91.5439 123.333 90.4957V85.7387C123.333 84.6905 122.483 83.8409 121.432 83.8409C120.383 83.8409 119.63 84.2802 119.011 85.9373C118.536 87.2117 118.426 88.1039 118.426 92.3935H121.432Z" fill="#536D79"/>
<path fill-rule="evenodd" clip-rule="evenodd" d="M115.705 92.3935C116.756 92.3935 117.606 91.5439 117.606 90.4957V85.7387C117.606 84.6905 116.756 83.8409 115.705 83.8409C114.656 83.8409 113.806 84.6905 113.806 85.7387V90.4957C113.806 91.5439 114.656 92.3935 115.705 92.3935ZM121.432 92.3935C122.483 92.3935 123.333 91.5439 123.333 90.4957V85.7387C123.333 84.6905 122.483 83.8409 121.432 83.8409C120.383 83.8409 119.533 84.6905 119.533 85.7387V90.4957C119.533 91.5439 120.383 92.3935 121.432 92.3935Z" fill="#36464E"/>
<path fill-rule="evenodd" clip-rule="evenodd" d="M73.4278 60.6215C73.5714 60.6215 73.6877 60.5051 73.6877 60.3616V57.2112H76.8437C76.9873 57.2112 77.1036 57.0948 77.1036 56.9513C77.1036 56.8078 76.9873 56.6914 76.8437 56.6914H73.4278C73.2843 56.6914 73.168 56.8078 73.168 56.9513V60.3616C73.168 60.5051 73.2843 60.6215 73.4278 60.6215ZM91.8808 56.9515C91.8808 57.095 91.9972 57.2114 92.1407 57.2114H95.2952V60.3618C95.2952 60.5053 95.4115 60.6217 95.555 60.6217C95.6986 60.6217 95.8149 60.5053 95.8149 60.3618V56.9515C95.8149 56.808 95.6986 56.6916 95.555 56.6916H92.1407C91.9972 56.6916 91.8808 56.808 91.8808 56.9515ZM95.295 75.6391C95.295 75.4956 95.4113 75.3793 95.5548 75.3793C95.6984 75.3793 95.8147 75.4956 95.8147 75.6391V79.0495C95.8147 79.193 95.6984 79.3093 95.5548 79.3093H92.1405C91.997 79.3093 91.8806 79.193 91.8806 79.0495C91.8806 78.906 91.997 78.7896 92.1405 78.7896H95.295V75.6391ZM100.574 76.5364C100.574 76.3928 100.458 76.2765 100.314 76.2765H97.1593V73.126C97.1593 72.9825 97.0429 72.8661 96.8994 72.8661C96.7559 72.8661 96.6395 72.9825 96.6395 73.126V76.5364C96.6395 76.6799 96.7559 76.7962 96.8994 76.7962H100.314C100.458 76.7962 100.574 76.6799 100.574 76.5364Z" fill="#CED7DB"/>
<path fill-rule="evenodd" clip-rule="evenodd" d="M96.8998 58.1086C97.0434 58.1086 97.1597 57.9922 97.1597 57.8487V54.6982H100.315C100.458 54.6982 100.575 54.5819 100.575 54.4383C100.575 54.2948 100.458 54.1785 100.315 54.1785H96.8998C96.7563 54.1785 96.64 54.2948 96.64 54.4383V57.8487C96.64 57.9922 96.7563 58.1086 96.8998 58.1086ZM115.352 54.4385C115.352 54.5821 115.469 54.6984 115.612 54.6984H118.767V57.8489C118.767 57.9924 118.884 58.1088 119.027 58.1088C119.171 58.1088 119.287 57.9924 119.287 57.8489V54.4385C119.287 54.295 119.171 54.1787 119.027 54.1787H115.612C115.469 54.1787 115.352 54.295 115.352 54.4385ZM118.767 73.1262C118.767 72.9827 118.883 72.8663 119.027 72.8663C119.17 72.8663 119.287 72.9827 119.287 73.1262V76.5365C119.287 76.6801 119.17 76.7964 119.027 76.7964H115.612C115.468 76.7964 115.352 76.6801 115.352 76.5365C115.352 76.393 115.468 76.2767 115.612 76.2767H118.767V73.1262ZM77.1036 79.0492C77.1036 78.9057 76.9873 78.7894 76.8437 78.7894H73.6877V75.6389C73.6877 75.4954 73.5714 75.379 73.4278 75.379C73.2843 75.379 73.168 75.4954 73.168 75.6389V79.0492C73.168 79.1928 73.2843 79.3091 73.4278 79.3091H76.8437C76.9873 79.3091 77.1036 79.1928 77.1036 79.0492Z" fill="#AFBDC4"/>
<path fill-rule="evenodd" clip-rule="evenodd" d="M91.5988 46.7287L79.3259 48.3744L77.5708 35.2899L89.8432 33.6448L91.5988 46.7287Z" fill="#444545"/>
<path fill-rule="evenodd" clip-rule="evenodd" d="M89.9407 45.6005L78.8356 47.0896L77.2305 35.1464L88.3356 33.6573L89.9407 45.6005Z" fill="#FFE082"/>
<path fill-rule="evenodd" clip-rule="evenodd" d="M77.6777 38.4736L78.8357 47.0898L84.6426 46.3112C84.2026 43.029 84.4624 37.2548 87.2109 33.8083L81.3071 34.5997C81.2756 34.6189 81.2436 34.6375 81.2111 34.6556C80.1618 35.2402 78.6231 36.4646 77.6777 38.4736Z" fill="#FD5959"/>
<path fill-rule="evenodd" clip-rule="evenodd" d="M88.0343 33.6979L84.7891 34.1329C84.7778 34.6494 84.7917 35.1771 84.8691 35.7524C84.9987 36.7179 85.901 37.3886 86.8689 37.2524C87.8367 37.1126 88.5057 36.2193 88.3761 35.2506C88.3003 34.6863 88.1777 34.1826 88.0343 33.6979Z" fill="#7E2D2B"/>
<path fill-rule="evenodd" clip-rule="evenodd" d="M76.7922 34.8119L78.5012 47.5278L90.379 45.9351L88.6701 33.2192L76.7922 34.8119ZM77.6688 35.481L88.0012 34.0955L89.5025 45.266L79.1701 46.6515L77.6688 35.481Z" fill="white"/>
<path fill-rule="evenodd" clip-rule="evenodd" d="M113.554 45.2999L102.181 41.8609L105.904 29.561L117.277 33.001L113.554 45.2999Z" fill="#444545"/>
<path fill-rule="evenodd" clip-rule="evenodd" d="M112.888 44.0624L102.163 40.8252L105.653 29.2907L116.38 32.5279L112.888 44.0624Z" fill="#FD5959"/>
<path fill-rule="evenodd" clip-rule="evenodd" d="M105.393 28.805L101.677 41.0857L113.148 44.5482L116.866 32.2675L105.393 28.805ZM115.894 32.7884L112.628 43.5767L102.649 40.5648L105.913 29.7765L115.894 32.7884Z" fill="white"/>
<path fill-rule="evenodd" clip-rule="evenodd" d="M113.998 41.7979L101.754 44.2759L99.1973 31.6968L111.442 29.2203L113.998 41.7979Z" fill="#444545"/>
<path fill-rule="evenodd" clip-rule="evenodd" d="M112.231 41.1611L101.249 43.386L98.8486 31.5764L109.83 29.3516L112.231 41.1611Z" fill="#90CAF9"/>
<path fill-rule="evenodd" clip-rule="evenodd" d="M98.3889 31.2718L100.945 43.8454L112.69 41.4657L110.135 28.8922L98.3889 31.2718ZM109.526 29.811L111.771 40.8565L101.554 42.9266L99.3083 31.881L109.526 29.811Z" fill="white"/>
<path fill-rule="evenodd" clip-rule="evenodd" d="M89.7679 48.9527L77.5923 47.3674L79.3057 34.2564L91.4813 35.8422L89.7679 48.9527Z" fill="#444545"/>
<path fill-rule="evenodd" clip-rule="evenodd" d="M88.5645 47.4254L77.4536 45.9784L79.0155 34.0289L90.1259 35.477L88.5645 47.4254Z" fill="#EE8C00"/>
<path fill-rule="evenodd" clip-rule="evenodd" d="M79.3463 46.2247L77.4536 45.9782L78.1507 40.6454C78.8025 40.1052 79.343 39.3456 79.8765 38.5959C80.7546 37.3618 81.6137 36.1544 82.919 35.9961C84.3878 35.8178 84.9372 36.2955 85.3863 36.686C85.7179 36.9743 85.9948 37.2151 86.5468 37.1093C88.0493 36.8239 88.2154 36.8545 88.2253 36.8717C88.5861 37.2533 88.8959 40.0626 85.5331 40.7697C82.7344 41.3576 80.7134 43.6255 79.3463 46.2247Z" fill="#FD5959"/>
<path fill-rule="evenodd" clip-rule="evenodd" d="M88.1472 38.2616C86.9143 38.1015 86.6472 37.2451 86.6363 37.2098C86.6279 37.1817 86.6321 37.1552 86.6462 37.1307C86.6597 37.1068 86.6821 37.0902 86.7092 37.085C86.7092 37.085 87.9545 36.7871 87.9655 36.786C88.0003 36.7787 88.0337 36.7777 88.0654 36.7813C88.534 36.8427 88.4392 38.0037 88.4278 38.1374L88.4274 38.1405C88.4217 38.1936 88.4118 38.2849 88.3153 38.2809C88.2554 38.2767 88.2018 38.2694 88.1472 38.2616ZM84.8582 37.6744C84.7166 37.6916 84.6182 37.8761 84.639 38.0846C84.6598 38.2947 84.7916 38.4507 84.9332 38.433C85.0758 38.4158 85.1732 38.2313 85.1534 38.0217C85.13 37.8132 84.9982 37.6567 84.8582 37.6744Z" fill="#434343"/>
<path fill-rule="evenodd" clip-rule="evenodd" d="M79.3484 46.225L77.4536 45.9782L77.5035 45.5969C78.8913 44.7251 80.0362 45.0388 80.0362 45.0388C79.7907 45.4228 79.5616 45.8199 79.3484 46.225Z" fill="#CD3020"/>
<path fill-rule="evenodd" clip-rule="evenodd" d="M80.8251 46.4173C80.6801 45.6134 80.5501 44.7722 80.4442 43.9285C80.3745 43.381 79.8731 42.9921 79.3243 43.0602C78.7751 43.1299 78.3867 43.6306 78.4538 44.1776C78.4541 44.1796 78.4545 44.1827 78.455 44.1867C78.4686 44.2922 78.5696 45.0753 78.7497 46.147L80.8251 46.4173Z" fill="#FD5959"/>
<path fill-rule="evenodd" clip-rule="evenodd" d="M81.7409 42.6944L80.9151 43.3719L78.1636 40.5974L78.9758 39.7941L81.7409 42.6944Z" fill="#487BFA"/>
<path fill-rule="evenodd" clip-rule="evenodd" d="M82.5996 36.9929C83.1941 37.0683 83.6143 37.6137 83.5372 38.206C83.3873 39.3491 83.4413 40.2675 83.4934 41.154C83.5418 41.979 83.5887 42.7764 83.468 43.7013C83.3446 44.6455 82.4866 45.3194 81.5395 45.2034C80.5915 45.0875 79.9131 44.2264 80.0365 43.2848C80.1562 42.3671 80.4035 41.6122 80.6607 40.8272C80.9389 39.9778 81.2287 39.0932 81.3807 37.9293C81.4588 37.3356 82.0034 36.9175 82.5996 36.9929Z" fill="#7E2D2B"/>
<path fill-rule="evenodd" clip-rule="evenodd" d="M78.6796 33.592L77.0166 46.3146L88.9006 47.8623L90.563 35.1409L78.6796 33.592ZM89.6889 35.8131L88.2285 46.9885L77.8907 45.6422L79.3516 34.4658L89.6889 35.8131Z" fill="white"/>
<path fill-rule="evenodd" clip-rule="evenodd" d="M102.328 44.1885H114.564V30.8727H102.328V44.1885Z" fill="#444545"/>
<path fill-rule="evenodd" clip-rule="evenodd" d="M113.216 42.7358H102.011V30.6855H113.216V42.7358Z" fill="#5CC78C"/>
<path fill-rule="evenodd" clip-rule="evenodd" d="M106.13 41.2543C105.18 40.6028 104.552 39.5135 104.541 38.2755V37.1394C104.52 35.1205 106.143 33.4665 108.166 33.4473C110.187 33.427 111.842 35.0487 111.862 37.0677V38.2027C111.88 39.9372 110.685 41.402 109.066 41.7931V42.7358H107.868L106.825 42.3625V41.6287C106.579 41.5289 106.346 41.403 106.13 41.2543Z" fill="#F7C1AB"/>
<path fill-rule="evenodd" clip-rule="evenodd" d="M109.585 41.6257C109.507 41.5703 109.35 41.5381 109.101 41.5405C108.319 41.5483 107.591 41.3101 106.993 40.8989C106.043 40.2474 105.416 39.1581 105.405 37.9185L105.404 36.7829C105.387 35.1244 106.696 34.7225 107.167 34.5777C107.269 34.5464 107.332 34.5271 107.334 34.5097C107.398 33.813 104.9 34.3142 104.576 36.614L104.507 37.8532L104.541 38.2757C104.553 39.5137 105.18 40.6024 106.13 41.2544C106.729 41.6662 107.456 41.9028 108.236 41.8955C108.714 41.891 109.168 41.7955 109.585 41.6257Z" fill="#F2989B"/>
<path fill-rule="evenodd" clip-rule="evenodd" d="M109.394 40.0344C109.318 40.0344 109.241 40.0282 109.164 40.0157C108.922 39.9731 108.697 39.8691 108.509 39.7084C108.469 39.6736 108.463 39.6122 108.5 39.5717C108.533 39.5301 108.596 39.5259 108.637 39.5602C108.796 39.698 108.989 39.7874 109.195 39.8238C109.52 39.8789 109.844 39.7968 110.107 39.5925C110.15 39.5602 110.211 39.5685 110.245 39.6117C110.277 39.6533 110.27 39.7141 110.226 39.7464C109.982 39.9367 109.693 40.0344 109.394 40.0344Z" fill="#F05B5B"/>
<path fill-rule="evenodd" clip-rule="evenodd" d="M105.87 32.3393C105.87 32.9425 106.189 33.4721 106.667 33.7694C106.47 33.8561 106.281 33.959 106.102 34.0763C105.936 34.1852 105.779 34.3065 105.633 34.439C105.64 34.3769 105.644 34.3139 105.644 34.25C105.644 33.3198 104.889 32.5664 103.957 32.5664C103.026 32.5664 102.271 33.3198 102.271 34.25C102.271 35.1797 103.026 35.9346 103.957 35.9346C104.224 35.9346 104.477 35.8723 104.702 35.7614C104.533 36.1767 104.442 36.6297 104.447 37.1048L104.532 38.1677C104.777 38.1085 105.015 38.0313 105.245 37.9372C105.628 37.78 105.987 37.5762 106.316 37.333C105.891 38.1671 105.34 38.7293 105.34 38.7293C105.34 38.7293 107.177 37.9395 107.68 36.0828C108.535 36.7309 109.605 37.111 110.762 37.099C111.139 37.0954 111.507 37.0503 111.86 36.9679C111.796 35.2052 110.483 33.7651 108.785 33.4935C109.07 33.192 109.245 32.7858 109.245 32.3393C109.245 31.5198 108.659 30.837 107.883 30.6855H107.232C106.457 30.837 105.87 31.5198 105.87 32.3393ZM107.345 38.151C107.355 38.1546 107.364 38.1557 107.374 38.1557C107.416 38.1557 107.455 38.1292 107.469 38.0881C107.54 37.8687 107.743 37.7184 107.974 37.7163H107.98C108.207 37.7163 108.411 37.8614 108.486 38.0787C108.504 38.1292 108.559 38.1557 108.61 38.138C108.66 38.1219 108.687 38.0657 108.67 38.0148C108.568 37.7184 108.29 37.5219 107.98 37.5219H107.972C107.657 37.5245 107.38 37.7293 107.283 38.0283C107.266 38.0798 107.294 38.1354 107.345 38.151ZM110.298 38.1237C110.287 38.1237 110.278 38.1227 110.268 38.119C110.217 38.1024 110.188 38.0478 110.205 37.9974C110.303 37.6963 110.58 37.494 110.895 37.4909H110.902C111.213 37.4909 111.491 37.689 111.591 37.9828C111.61 38.0353 111.583 38.0899 111.532 38.1081C111.48 38.1247 111.425 38.0977 111.408 38.0468C111.332 37.8289 111.134 37.6906 110.896 37.6849C110.665 37.6869 110.461 37.8357 110.39 38.0566C110.377 38.0977 110.339 38.1237 110.298 38.1237Z" fill="#444545"/>
<path fill-rule="evenodd" clip-rule="evenodd" d="M103.806 38.3705C103.806 38.7906 104.147 39.1322 104.567 39.1322C104.989 39.1322 105.331 38.7906 105.331 38.3705C105.331 37.9493 104.989 37.6093 104.567 37.6093C104.147 37.6093 103.806 37.9493 103.806 38.3705Z" fill="#F2989B"/>
<path fill-rule="evenodd" clip-rule="evenodd" d="M101.621 30.2957V43.1256H113.605V30.2957H101.621ZM112.826 31.0753V42.346H102.401V31.0753H112.826Z" fill="white"/>
</svg>
