<svg height="64" viewBox="0 0 64 64" width="64" xmlns="http://www.w3.org/2000/svg"><g fill="none" fill-rule="nonzero"><path d="m57.3333333 29.3326667v-8-10.666c0-2.20904637-1.7909536-4.00000003-4-4.00000003h-5.3333333v2.66666666h5.3333333c.736287 0 1.3333334.59704634 1.3333334 1.33333337v10.666 16 5.334c0 .736287-.5970464 1.3333333-1.3333334 1.3333333h-5.3333333-5.3333333v2.6666667h2.6666666-30.1143819l-8.55228473 8.5522847v-44.5522847c0-2.20904637 1.79095366-4.00000003 4.00000003-4.00000003h42.6666666c2.2090464 0 4 1.79095366 4 4.00000003zm-47.99999997 19.4483819 4.78104857-4.7810486h39.2189514c.736287 0 1.3333334-.5970463 1.3333334-1.3333333v-32c0-.73628703-.5970464-1.33333337-1.3333334-1.33333337h-42.6666666c-.73628703 0-1.33333337.59704634-1.33333337 1.33333337zm27.99999997-15.4477153v2.6666667h-21.3333333v-2.6666667zm0 2.6666667h-21.3333333v-2.6666667h21.3333333zm10.6666667-10.6666667v2.6666667h-32v-2.6666667zm0 2.6666667h-32v-2.6666667h32zm0-10.6666667v2.6666667h-32v-2.6666667zm0 2.6666667h-32v-2.6666667h32z" fill="#bdc1c6"/><path d="m54.6666667 37.3326667h2.6666666v5.334c0 2.2090463-1.7909536 4-4 4h-5.3333333v-2.6666667h5.3333333c.736287 0 1.3333334-.5970463 1.3333334-1.3333333z" fill="#fbbc04"/><path d="m54.6666667 21.3326667h2.6666666v16h-2.6666666z" fill="#ea4335"/><path d="m48 9.33333333v-2.66666666h5.3333333c2.2090464 0 4 1.79095366 4 4.00000003v10.666h-2.6666666v-10.666c0-.73628703-.5970464-1.33333337-1.3333334-1.33333337z" fill="#4285f4"/><path d="m48 44v2.6666667h-5.3333333v-2.6666667z" fill="#34a853"/></g></svg>