<?xml version="1.0" encoding="UTF-8"?>
<svg viewBox="0 0 708 400" version="1.1" xmlns="http://www.w3.org/2000/svg" xmlns:xlink="http://www.w3.org/1999/xlink">
    <!-- Generator: Sketch 55.2 (78181) - https://sketchapp.com -->
    <title>Mask</title>
    <desc>Created with Sketch.</desc>
    <defs>
        <path d="M169.106921,127.83343 C159.003894,165.272077 146.680638,166.456765 118.633481,183.145172 C90.5863245,199.833579 66.230407,210.601335 31.1529399,187.06952 C-3.9245273,163.537705 -20.9995876,97.8541243 45.7277208,40.7083251 C112.455029,-16.437474 147.467024,-2.00664846 169.149209,16.6269682 C190.831393,35.2605849 179.209948,90.3947831 169.106921,127.83343 Z" id="path-1"></path>
        <path d="M0.718355863,19.7975179 C-2.61539206,47.6061727 5.65431013,89.6479383 25.5274625,145.922815 L62.5873926,152.64213 L78.3921917,27.9108572 L76.0666117,24.8651222 C69.400435,21.7677736 59.7383583,19.3195859 47.0803817,17.520559 C28.0934167,14.8220188 5.71897775,-21.9154644 0.718355863,19.7975179 Z" id="path-3"></path>
        <path d="M75.3137624,3.96573057 C75.7818238,-4.90165838 62.3765397,47.184298 134.640806,106.776766 L109.049696,134.511011 C79.9022025,115.880013 48.0436674,81.4861292 13.4740909,31.3293588 C-10.6772544,-3.71166862 1.90245278,14.8952861 23.2389935,5.45401399 C37.4633539,-0.84016744 54.8216102,-1.33626191 75.3137624,3.96573057 Z" id="path-5"></path>
        <polygon id="path-7" points="0.215165255 0.60273008 10.3876283 0.60273008 10.3876283 12.6821865 0.215165255 12.6821865"></polygon>
        <polygon id="path-9" points="0.0123937348 0.405632615 33.4869376 0.405632615 33.4869376 50.9524398 0.0123937348 50.9524398"></polygon>
        <polygon id="path-11" points="0.0852044321 47.4624504 19.7180306 0.0860551992 14.0346859 49.0137981"></polygon>
        <linearGradient x1="50%" y1="0%" x2="50%" y2="100%" id="linearGradient-13">
            <stop stop-color="#FFFFFF" offset="0%"></stop>
            <stop stop-color="#000000" offset="100%"></stop>
        </linearGradient>
        <polygon id="path-14" points="0 0.128716606 30.4823299 0.128716606 30.4823299 39.7494196 0 39.7494196"></polygon>
        <path d="M13.4327662,39.7493935 C12.9163124,38.1983074 0,0.128952016 0,0.128952016 L30.482539,35.0958736 L13.4327662,39.7493935 Z" id="path-16"></path>
        <linearGradient x1="25.5698779%" y1="3.91794055%" x2="65.5664105%" y2="91.5625281%" id="linearGradient-18">
            <stop stop-color="#34A853" stop-opacity="0" offset="0%"></stop>
            <stop stop-color="#A3D8B1" stop-opacity="0.547797849" offset="17.9905491%"></stop>
            <stop stop-color="#FFFFFF" offset="100%"></stop>
        </linearGradient>
        <polygon id="path-19" points="3.25815476 53.7340173 3.41889318 52.2569543 0.15812479 0.153016084 17.7240901 54.2511332"></polygon>
        <linearGradient x1="50.0003339%" y1="91.8860681%" x2="50.0003339%" y2="45.0956108%" id="linearGradient-21">
            <stop stop-color="#979CA5" offset="0%"></stop>
            <stop stop-color="#FFFFFF" offset="100%"></stop>
        </linearGradient>
        <path d="M0.147147532,38.7496884 C1.18057797,37.1983407 20.8131428,0.16295559 20.8131428,0.16295559 L13.5804365,37.7154566 L0.147147532,38.7496884 Z" id="path-22"></path>
        <polygon id="path-24" points="0.0852305684 0.195651334 14.034712 0.195651334 14.034712 60.1736142 0.0852305684 60.1736142"></polygon>
        <linearGradient x1="50%" y1="0%" x2="50%" y2="100%" id="linearGradient-26">
            <stop stop-color="#34A853" stop-opacity="0" offset="0%"></stop>
            <stop stop-color="#A3D8B1" stop-opacity="0.547797849" offset="37.2182278%"></stop>
            <stop stop-color="#FFFFFF" offset="100%"></stop>
        </linearGradient>
        <linearGradient x1="56.8060682%" y1="32.4367%" x2="43.0950389%" y2="93.2217627%" id="linearGradient-27">
            <stop stop-color="#34A853" stop-opacity="0" offset="0%"></stop>
            <stop stop-color="#A3D8B1" stop-opacity="0.547797849" offset="55.4460147%"></stop>
            <stop stop-color="#FFFFFF" offset="100%"></stop>
        </linearGradient>
        <linearGradient x1="25.5583749%" y1="65.3840711%" x2="79.0289708%" y2="3.84722294%" id="linearGradient-28">
            <stop stop-color="#979CA5" offset="0%"></stop>
            <stop stop-color="#FFFFFF" offset="100%"></stop>
        </linearGradient>
        <path d="M25.5626364,41.2057927 C29.8027331,41.2057927 33.7346824,39.8924701 36.9805531,37.6537271 C33.3468193,42.9308202 27.268816,46.3923841 20.3803252,46.3923841 C9.25226042,46.3923841 0.230783784,37.3641735 0.230783784,26.2272183 L0.230783784,0.0499590974 L5.41335643,0.0499590974 L5.41335643,21.0408886" id="path-29"></path>
        <linearGradient x1="1.76824872%" y1="101.951462%" x2="60.2793881%" y2="28.1101642%" id="linearGradient-31">
            <stop stop-color="#979CA5" offset="0%"></stop>
            <stop stop-color="#FFFFFF" offset="100%"></stop>
        </linearGradient>
    </defs>
    <g id="Screens" stroke="none" stroke-width="1" fill="none" fill-rule="evenodd">
        <g id="e.-SMUI-Card-update" transform="translate(-2627.000000, -254.000000)">
            <g id="Group-4" transform="translate(2627.000000, 254.000000)">
                <g id="Group-48">
                    <g id="Group-264">
                        <g>
                            <g>
                                <g id="Group-232" transform="translate(98.000000, 13.000000)">
                                    <g id="Group-211">
                                        <g id="Group-263">
                                            <g id="Group-45" transform="translate(95.166152, 0.000000)">
                                                <path d="M342.45894,318.65685 C342.45894,320.360999 273.127373,321.741643 187.606029,321.741643 C102.084685,321.741643 32.7557958,320.359645 32.7557958,318.65685 C32.7557958,316.952702 102.084685,315.572058 187.606029,315.572058 C273.127373,315.572058 342.45894,316.954056 342.45894,318.65685" id="Fill-1" fill="#E2EAE3"></path>
                                                <g id="Group-6" transform="translate(63.958933, 270.911942)" fill="#25272B">
                                                    <path d="M1.43088891,0.685785716 L1.43088891,44.659304" id="Fill-3"></path>
                                                </g>
                                                <g id="Group-10" transform="translate(129.213977, 270.911942)" fill="#25272B">
                                                    <path d="M1.4424226,0.685785716 L1.4424226,44.659304" id="Fill-7"></path>
                                                </g>
                                                <g id="Group-14" transform="translate(0.052596, 0.204677)">
                                                    <path d="M239.382282,271.39305 L239.382282,315.366569" id="Fill-11" fill="#25272B"></path>
                                                    <g id="Group-262" transform="translate(188.485425, 177.959256) rotate(-4.000000) translate(-188.485425, -177.959256) translate(11.485425, 12.459256)">
                                                        <path d="M219.522723,264.774549 L219.522723,308.748067 C219.522723,310.434557 220.875181,311.801727 222.543523,311.801727 C224.211864,311.801727 225.564323,310.434557 225.564323,308.748067 L225.564323,264.774549 C225.564323,263.088059 224.211864,261.720888 222.543523,261.720888 C220.875181,261.720888 219.522723,263.088059 219.522723,264.774549 Z" id="Stroke-13" fill="#25272B" fill-rule="nonzero"></path>
                                                        <path d="M284.97644,266.430135 L284.97644,310.403654 C284.97644,312.090144 286.328899,313.457314 287.99724,313.457314 C289.665582,313.457314 291.01804,312.090144 291.01804,310.403654 L291.01804,266.430135 C291.01804,264.743645 289.665582,263.376475 287.99724,263.376475 C286.328899,263.376475 284.97644,264.743645 284.97644,266.430135 Z" id="Stroke-17" fill="#25272B" fill-rule="nonzero"></path>
                                                        <g id="Group-261" transform="translate(0.486935, 0.660040)">
                                                            <path d="M36.6278001,296.374477 C29.9744731,296.374477 24.1748576,291.797281 22.5608267,285.272483 L0.804809633,197.32274 C-1.48370909,188.071293 5.43809551,179.109054 14.871783,179.109054 L221.551267,179.109054 C228.204672,179.109054 234.004335,183.686356 235.618291,190.211254 L257.372969,278.160997 C259.661334,287.412393 252.739545,296.374477 243.305944,296.374477 L36.6278001,296.374477 Z M224.733752,267.058798 L210.23041,208.424733 L33.4442527,208.424733 L47.9484873,267.058798 L224.733752,267.058798 Z" id="Stroke-21" fill="#3362B5" fill-rule="nonzero"></path>
                                                            <polygon id="Fill-19" fill="#3362B5" points="36.6278001 281.716637 14.871783 193.766894 221.551267 193.766894 243.305944 281.716637"></polygon>
                                                            <g id="Group-256" transform="translate(181.695168, 165.160337) rotate(-4.000000) translate(-181.695168, -165.160337) translate(21.195168, 11.160337)">
                                                                <path d="M60.2930072,268.850591 C65.0340568,238.349226 69.8760625,217.852388 74.8190242,207.360078 C79.761986,196.867768 90.7515901,192.264096 107.787837,193.549064 C117.458063,196.667374 128.193006,202.056598 139.992667,209.716735 C151.792328,217.376873 170.568215,228.445625 196.32033,242.922992 L186.478854,277.244297 L60.2930072,268.850591 Z" id="Fill-33" fill="#147F90"></path>
                                                                <path d="M202.601995,126.877174 C204.903462,118.300874 180.961836,166.461512 239.256983,239.776327 L208.458827,261.583821 C183.821879,237.299851 159.81042,197.033794 136.42445,140.78565 C113.038481,84.5375066 118.015582,76.777617 151.355753,117.505981 L202.601995,126.877174 Z" id="Mask" fill="#147F90"></path>
                                                                <g id="shadow" transform="translate(0.000000, 88.892263)">
                                                                    <mask id="mask-2" fill="white">
                                                                        <use xlink:href="#path-1"></use>
                                                                    </mask>
                                                                    <use id="Mask" fill="#1EC3DB" xlink:href="#path-1"></use>
                                                                    <path d="M159.2071,-69.650306 L171.920229,-4.58763812 C162.510308,15.3147372 146.611838,25.0377009 129.19996,28.3345271 C105.699686,32.7841514 67.702954,13.7385502 69.9252358,-25.5909484 C71.0499402,-45.495742 81.795458,-61.2496016 102.161789,-72.8525272 C114.332402,-79.7862608 128.953062,-80.9593668 142.073527,-76.0548929 L159.2071,-69.650306 Z" fill="#147F90" mask="url(#mask-2)"></path>
                                                                </g>
                                                                <g id="head" transform="translate(201.845776, 81.192812) rotate(10.000000) translate(-201.845776, -81.192812) translate(92.845776, 18.192812)">
                                                                    <path d="M50.6415378,0.648016716 C59.589182,1.95741792 67.7300795,6.47793179 74.2719714,13.2404413 C81.5548774,7.01815402 91.0026964,3.26179836 101.326741,3.26179836 C124.359733,3.26179836 143.031417,21.9586172 143.031417,45.0226152 L143.031417,90.5813279 C143.031417,101.501949 151.872809,107.289464 162.778748,107.289464 L162.912203,107.289464 C173.675346,107.289464 182.400632,101.618211 182.400632,90.840579 L182.400632,72.5353096 C182.400632,57.341054 194.702511,45.0226152 209.87634,45.0226152 L217.938622,45.0226152 L217.938622,58.7201632 L212.022296,58.7201632 C203.770776,58.7201632 197.080678,65.4192664 197.080678,73.6818946 L197.080678,89.7688294 C197.080678,109.892866 180.789831,125.871824 160.692847,125.871824 L85.0765614,125.871824 C68.9128672,125.871824 54.1188135,119.999286 42.7062211,110.268613 C19.0296687,108.662102 0.235004907,84.6684875 0.235004907,55.3048633 C0.235004907,24.9016523 20.3840355,0.255420444 45.2386883,0.255420444 C47.0671586,0.255420444 48.8701575,0.388792348 50.6415378,0.648016716 L50.6415378,0.648016716 Z" id="head-+-ear" fill="#1EC3DB"></path>
                                                                    <path d="M113.241979,101.577685 L113.241979,101.577685 C113.241979,106.63844 117.348197,110.717178 122.378649,110.655297 C136.04286,110.484453 160.864751,107.238413 167.07758,86.571644 C167.07758,86.571644 155.057194,94.7250832 122.836085,92.5229417 C117.642454,92.1678009 113.241979,96.3407045 113.241979,101.577685" id="tusk" fill="#DEDFE4"></path>
                                                                    <path d="M104.498753,50.0976505 C104.498753,51.9237163 103.017802,53.4033453 101.193058,53.4033453 C99.3669926,53.4033453 97.8873636,51.9237163 97.8873636,50.0976505 C97.8873636,48.2715847 99.3669926,46.7919557 101.193058,46.7919557 C103.017802,46.7919557 104.498753,48.2715847 104.498753,50.0976505" id="eye" fill="#147F90"></path>
                                                                </g>
                                                                <g id="Leg" transform="translate(125.235949, 258.020775) rotate(-83.000000) translate(-125.235949, -258.020775) translate(85.235949, 181.020775)">
                                                                    <g id="Combined-Shape" transform="translate(0.234053, 0.397055)">
                                                                        <mask id="mask-4" fill="white">
                                                                            <use xlink:href="#path-3"></use>
                                                                        </mask>
                                                                        <use id="Mask" fill="#1EC3DB" xlink:href="#path-3"></use>
                                                                        <path d="M64.1492947,157.266066 C58.8319357,157.824943 54.0683053,153.967431 53.5094283,148.650072 C52.9505514,143.332713 56.8080632,138.569083 62.1254222,138.010206 C67.4427812,137.451329 72.2064116,141.308841 72.7652885,146.626199 C73.3241655,151.943558 69.4666536,156.707189 64.1492947,157.266066 Z M44.2363779,157.437621 C40.086244,157.873818 36.3682886,154.863077 35.9320919,150.712943 C35.4958953,146.562809 38.5066362,142.844854 42.6567701,142.408657 C46.8069039,141.972461 50.5248594,144.983202 50.961056,149.133335 C51.3972526,153.283469 48.3865117,157.001425 44.2363779,157.437621 Z" id="Shape" fill="#81DFEE" mask="url(#mask-4)"></path>
                                                                    </g>
                                                                </g>
                                                            </g>
                                                            <g id="Group-260" transform="translate(0.000000, 136.780729)">
                                                                <path d="M311.762693,149.340275 C310.148662,155.954099 304.349046,160.593748 297.695719,160.593748 L232.429007,160.593748 C222.99532,160.593748 216.073515,151.509226 218.362034,142.131549 L229.240043,97.5566699 C230.854074,90.942846 236.653689,86.3031973 243.307016,86.3031973 L308.573728,86.3031973 C318.007415,86.3031973 324.92922,95.3877196 322.640701,104.765396 L311.762693,149.340275 Z M290.001258,116.018869 L254.627703,116.018869 L251.001477,130.878077 L286.375032,130.878077 L290.001258,116.018869 Z" id="Stroke-29" fill="#3362B5" fill-rule="nonzero"></path>
                                                                <polygon id="Fill-27" fill="#3362B5" points="297.695719 144.935909 232.429007 144.935909 243.307016 100.961037 308.573728 100.961037"></polygon>
                                                                <g id="Combined-Shape" transform="translate(150.512380, 0.896265)">
                                                                    <mask id="mask-6" fill="white">
                                                                        <use xlink:href="#path-5"></use>
                                                                    </mask>
                                                                    <use id="Mask" fill="#1EC3DB" xlink:href="#path-5"></use>
                                                                    <path d="M141.860052,106.796087 C141.673456,112.139478 137.190516,116.319888 131.847125,116.133292 C126.503733,115.946697 122.323324,111.463757 122.509919,106.120366 C122.696515,100.776974 127.179455,96.5965649 132.522846,96.7831602 C137.866238,96.9697556 142.046647,101.452696 141.860052,106.796087 Z M129.272929,123.428756 C129.127294,127.599207 125.628414,130.861966 121.457962,130.71633 C117.28751,130.570695 114.024752,127.071815 114.170387,122.901363 C114.316023,118.730911 117.814903,115.468153 121.985355,115.613788 C126.155806,115.759424 129.418565,119.258304 129.272929,123.428756 Z" id="Shape" fill="#81DFEE" mask="url(#mask-6)"></path>
                                                                </g>
                                                                <g id="Group-34" transform="translate(14.620500, 56.807603)" fill="#4285F4">
                                                                    <path d="M0.25168493,0.179103787 L22.007702,88.1288475" id="Fill-31"></path>
                                                                </g>
                                                                <path d="M293.465189,122.947796 L107.939026,122.947796 C97.9286055,122.947796 89.8135565,131.15112 89.8135565,141.270434 C89.8135565,151.389747 97.9286055,159.593071 107.939026,159.593071 L293.465189,159.593071 C303.475609,159.593071 311.590658,151.389747 311.590658,141.270434 C311.590658,131.15112 303.475609,122.947796 293.465189,122.947796 Z" id="Stroke-35" fill="#4285F4" fill-rule="nonzero"></path>
                                                                <g id="Group-40" transform="translate(90.962101, 100.873916)" fill="#4285F4">
                                                                    <path d="M10.9329464,44.0619929 L0.0549378908,0.087120998" id="Fill-37"></path>
                                                                </g>
                                                                <path d="M115.962021,141.380063 L105.084013,97.4051907 C103.141306,89.5517051 95.2684322,84.7772037 87.4994573,86.7410432 C79.7304825,88.7048827 75.0073591,96.6633972 76.9500659,104.516883 L87.8280744,148.491755 C89.7707812,156.34524 97.6436547,161.119742 105.41263,159.155902 C113.181604,157.192063 117.904728,149.233548 115.962021,141.380063 Z" id="Stroke-39" fill="#4285F4" fill-rule="nonzero"></path>
                                                                <g id="Group-44" transform="translate(282.460259, 85.717000)" fill="#4285F4">
                                                                    <path d="M26.1129327,15.243766 L15.2349242,59.2186378" id="Fill-41"></path>
                                                                    <path d="M12.0459594,11.68792 L1.16795086,55.6627918 C-0.774755951,63.5162774 3.94836749,71.4747918 11.7173423,73.4386314 C19.4863172,75.4024709 27.3591907,70.6279694 29.3018975,62.7744839 L40.1799061,18.799612 C42.1226129,10.9461264 37.3994894,2.98761199 29.6305146,1.02377246 C21.8615397,-0.940067068 13.9886662,3.8344344 12.0459594,11.68792 Z" id="Stroke-43" fill-rule="nonzero"></path>
                                                                </g>
                                                                <path d="M0.805211431,60.5425523 L22.5612285,148.492296 C24.5039353,156.345782 32.3768089,161.120283 40.1457837,159.156444 C47.9147585,157.192604 52.637882,149.23409 50.6951752,141.380604 L28.9391581,53.4308603 C26.9964513,45.5773747 19.1235778,40.8028733 11.3546029,42.7667128 C3.58562806,44.7305523 -1.13749538,52.6890668 0.805211431,60.5425523 Z" id="Stroke-33" fill="#4285F4" fill-rule="nonzero"></path>
                                                                <polygon id="Fill-23" fill="#4285F4" points="38.5265934 142.77424 103.793305 142.77424 92.9152968 98.7993682 27.6485849 98.7993682"></polygon>
                                                                <path d="M36.6278001,159.593748 L101.894512,159.593748 C111.328199,159.593748 118.250004,150.631509 115.961485,141.380063 L105.083477,97.4051907 C103.469446,90.8803932 97.6698304,86.3031973 91.0165035,86.3031973 L25.7497915,86.3031973 C16.3161041,86.3031973 9.39429946,95.2654359 11.6828182,104.516883 L22.5608267,148.491755 C24.1748576,155.016552 29.9744731,159.593748 36.6278001,159.593748 Z M44.3222612,115.618876 L79.6958162,115.618876 L83.3220423,130.278069 L47.9484873,130.278069 L44.3222612,115.618876 Z" id="Stroke-25" fill="#4285F4" fill-rule="nonzero"></path>
                                                            </g>
                                                        </g>
                                                    </g>
                                                </g>
                                                <g id="Group-18" transform="translate(303.947197, 271.471935)" fill="#25272B">
                                                    <path d="M0.754259245,0.125792546 L0.754259245,44.0993108" id="Fill-15"></path>
                                                </g>
                                                <g id="Group-17" transform="translate(325.467881, 199.824274) scale(-1, 1) translate(-325.467881, -199.824274) translate(304.967881, 171.324274)">
                                                    <g id="Group-3" transform="translate(13.255919, 0.640385)">
                                                        <mask id="mask-8" fill="white">
                                                            <use xlink:href="#path-7"></use>
                                                        </mask>
                                                        <g id="Clip-2"></g>
                                                        <path d="M0.777501091,12.6821865 C-0.195566234,7.77211118 0.325142845,3.84007412 0.633342969,2.06792341 C0.874435001,0.685993823 1.4895925,0.249791229 2.55338003,0.894774552 C3.75262648,1.61805065 6.65070183,2.89186164 10.3876283,7.27749969 L0.777501091,12.6821865 Z" id="Fill-1" fill="#EE8C00" mask="url(#mask-8)"></path>
                                                    </g>
                                                    <g id="Group-6" transform="translate(6.213712, 5.611355)">
                                                        <mask id="mask-10" fill="white">
                                                            <use xlink:href="#path-9"></use>
                                                        </mask>
                                                        <g id="Clip-5"></g>
                                                        <path d="M31.3432069,45.9335002 C27.6833304,44.5627553 22.4874243,31.3014508 22.6042421,26.7517707 C22.8938011,25.1908862 23.569853,24.6291666 24.1663694,24.3135101 C37.6004151,17.2087516 30.4521606,6.33226979 30.4521606,6.33226979 C25.205302,9.10731365 23.569853,-3.95142384 12.3938703,1.95905917 C11.9551822,2.19020926 11.5575046,2.43875775 11.1573416,2.71216109 C5.85331686,0.850532921 2.72781964,1.13884917 1.33346263,1.10156689 C0.386492897,1.0754693 -0.0323113033,1.45202026 0.0161556516,2.20387943 C0.228664608,1.79998814 0.64871155,1.62724694 1.35458925,1.77389055 C2.56999135,2.02492452 5.21206176,2.28838592 9.21493514,4.28671575 C6.57907844,6.97601037 5.25431501,10.6955385 5.5674861,14.4138238 C5.23691661,17.6722945 6.36781223,20.8624143 6.36781223,20.8624143 C6.36781223,20.8624143 6.7008672,20.3466762 7.24643113,19.7377324 C7.50492155,20.1813915 7.81560716,20.6412062 8.18594441,21.1109628 C8.46556145,21.4763291 8.77003335,21.8044131 9.08071896,22.1275261 C9.24351822,22.2952963 9.4100457,22.4593383 9.58651513,22.6233803 C9.89098702,22.9042401 10.1892452,23.1888282 10.5160865,23.4324057 C10.9883286,23.8101994 11.3226263,24.854103 11.3735787,25.9986688 C9.81393699,33.2450999 -1.02153428,40.6866416 3.19633354,50.9529368 L18.0433774,50.9529368 C18.0993008,45.8204106 18.7678962,41.7964106 19.5545522,37.8805292 C22.6999333,45.6451839 27.309265,50.9529368 29.5101618,50.9529368 L32.0503273,50.9529368 C33.6696207,50.9529368 34.4972872,47.1153482 31.3432069,45.9335002" id="Fill-4" fill="#EABD63" mask="url(#mask-10)"></path>
                                                    </g>
                                                    <path d="M10.533982,55.7761445 C11.6188961,55.7761445 12.5000005,54.8962829 12.5000005,53.810126 C12.5000005,52.7239691 11.6188961,51.8441074 10.533982,51.8441074 C7.95901964,51.8441074 6.11976084,51.0313539 5.35671698,49.5549759 C4.53774972,47.971722 4.92548536,45.7248437 6.36706658,43.6904743 C8.19886893,41.1068128 8.73449092,38.206252 7.84095911,35.7344373 C7.01826362,33.4627041 5.11189672,31.8260123 2.47106905,31.1251056 C1.4209517,30.8467313 0.344736751,31.470588 0.0663624459,32.5207054 C-0.212011859,33.56958 0.411844842,34.6470377 1.4619622,34.925412 C2.84016356,35.292021 3.76600667,36.0339382 4.14255763,37.0728709 C4.59243039,38.3156133 4.23452057,39.8988672 3.15830562,41.4174984 C0.862960345,44.6560852 0.367106115,48.4663335 1.863368,51.3606806 C2.71588931,53.0097999 4.97519506,55.7761445 10.533982,55.7761445" id="Fill-7" fill="#EE8C00"></path>
                                                    <path d="M8.60735837,50.3656582 C9.09948437,46.7144809 11.8447024,43.4199707 15.81775,43.4199707 C21.0658513,43.4199707 24.6151236,47.0214383 24.6151236,50.7036841 C24.6151236,51.0417101 26.4407123,52.3366477 27.6859402,52.5851962 C29.0156746,52.8511431 29.9912274,53.7272765 29.9912274,55.1464883 C29.9912274,56.7123438 28.7944664,56.9372802 28.3943034,56.9372802 L9.41016998,56.9372802 C9.41016998,56.9372802 7.98722989,54.9749899 8.60735837,50.3656582" id="Fill-9" fill="#EABD63"></path>
                                                    <path d="M10.2372151,15.6642713 C10.3602466,15.8457117 10.4733361,16.0196956 10.6025813,16.2048642 C10.9716758,16.7342725 11.3581687,17.2599526 11.7595745,17.7769334 L16.3676635,10.3701885 C11.8229544,7.91328672 8.87765484,7.65231081 7.56904706,7.3826357 C6.86192662,7.23474935 6.44187968,7.40500506 6.22937072,7.80889635 C6.24552637,8.05495935 6.30890624,8.33954737 6.42323854,8.66390315 C6.84825645,9.87184879 8.26995379,12.7450693 10.2372151,15.6642713" id="Fill-11" fill="#EE8C00"></path>
                                                    <path d="M32.225554,14.3360282 C32.225554,13.7668521 31.7632538,13.3033092 31.1928351,13.3033092 C30.623659,13.3033092 30.1613588,13.7668521 30.1613588,14.3360282 C30.1613588,14.9052042 30.623659,15.3675044 31.1928351,15.3675044 C31.7632538,15.3675044 32.225554,14.9052042 32.225554,14.3360282" id="Fill-13" fill="#25272B"></path>
                                                    <path d="M35.4719701,12.2534404 L36.6650028,11.7352168 C36.765665,11.6942063 36.8849682,11.7352168 36.9321924,11.8321507 L37.5175241,13.0438246 C37.5635056,13.1407585 37.5187669,13.2550908 37.4181047,13.2985868 C37.2615192,13.3656949 37.0925062,13.3955207 36.9123086,13.3855787 C36.1467792,13.34084 35.4359306,12.5877381 35.4061047,12.5554268 C35.3638515,12.5106881 35.3464531,12.448551 35.3588805,12.3876566 C35.371308,12.3292477 35.4148039,12.279538 35.4719701,12.2534404" id="Fill-15" fill="#FF3D00"></path>
                                                </g>
                                            </g>
                                            <g id="Group-46" transform="translate(0.000000, 198.877042)">
                                                <path d="M54.5921185,118.951313 C54.5921185,120.150829 42.4331654,121.122637 27.4349465,121.122637 C12.4367277,121.122637 0.278244284,120.149876 0.278244284,118.951313 C0.278244284,117.751798 12.4367277,116.77999 27.4349465,116.77999 C42.4331654,116.77999 54.5921185,117.75275 54.5921185,118.951313" id="Fill-1" fill="#E2EAE3"></path>
                                                <polygon id="Fill-1" fill="#34A853" points="20.0662998 57.8114549 39.2204951 10.0481568 33.6757053 59.3754718"></polygon>
                                                <g id="Group-45" transform="translate(4.560523, 0.000000)">
                                                    <g id="Group-4" opacity="0.2" style="mix-blend-mode: multiply;" transform="translate(14.897707, 9.416374)">
                                                        <mask id="mask-12" fill="white">
                                                            <use xlink:href="#path-11"></use>
                                                        </mask>
                                                        <g id="Clip-3"></g>
                                                        <polygon id="Fill-2" fill="url(#linearGradient-13)" mask="url(#mask-12)" points="0.0852044321 47.4624504 19.7180306 0.0860551992 14.0346859 49.0137981"></polygon>
                                                    </g>
                                                    <g id="Group-7" transform="translate(0.000000, 27.987557)">
                                                        <mask id="mask-15" fill="white">
                                                            <use xlink:href="#path-14"></use>
                                                        </mask>
                                                        <g id="Clip-6"></g>
                                                        <path d="M13.4328185,39.7494196 C12.9161033,38.1983335 -0.000209090631,0.128716606 -0.000209090631,0.128716606 L30.4823299,35.0958997 L13.4328185,39.7494196 Z" id="Fill-5" fill="#34A853" mask="url(#mask-15)"></path>
                                                    </g>
                                                    <g id="Group-10" transform="translate(0.000000, 27.987557)">
                                                        <mask id="mask-17" fill="white">
                                                            <use xlink:href="#path-16"></use>
                                                        </mask>
                                                        <g id="Clip-9"></g>
                                                        <path d="M13.4327662,39.7493935 C12.9163124,38.1983074 0,0.128952016 0,0.128952016 L30.482539,35.0958736 L13.4327662,39.7493935 Z" id="Fill-8" mask="url(#mask-17)"></path>
                                                    </g>
                                                    <path d="M7.37731859,41.1714491 L18.5349174,58.5676777" id="Stroke-11" stroke="url(#linearGradient-18)" stroke-width="3.28084035" opacity="0.2" style="mix-blend-mode: soft-light;" stroke-linecap="square"></path>
                                                    <polygon id="Fill-13" fill="#34A853" points="11.8830126 57.3959407 12.043751 55.9191393 8.783244 3.81493945 26.3492093 57.9130565"></polygon>
                                                    <g id="Group-17" opacity="0.2" style="mix-blend-mode: multiply;" transform="translate(8.624989, 3.661923)">
                                                        <mask id="mask-20" fill="white">
                                                            <use xlink:href="#path-19"></use>
                                                        </mask>
                                                        <g id="Clip-16"></g>
                                                        <polygon id="Fill-15" fill="url(#linearGradient-21)" style="mix-blend-mode: multiply;" mask="url(#mask-20)" points="3.25815476 53.7340173 3.41889318 52.2569543 0.15812479 0.153016084 17.7240901 54.2511332"></polygon>
                                                    </g>
                                                    <path d="M22.8858059,58.8902408 C23.9192364,57.3388931 43.5518012,20.3037695 43.5518012,20.3037695 L36.3188335,57.856009 L22.8858059,58.8902408 Z" id="Fill-18" fill="#34A853"></path>
                                                    <g id="Group-22" transform="translate(22.738606, 20.140579)">
                                                        <mask id="mask-23" fill="white">
                                                            <use xlink:href="#path-22"></use>
                                                        </mask>
                                                        <g id="Clip-21"></g>
                                                        <path d="M0.147147532,38.7496884 C1.18057797,37.1983407 20.8131428,0.16295559 20.8131428,0.16295559 L13.5804365,37.7154566 L0.147147532,38.7496884 Z" id="Fill-20" mask="url(#mask-23)"></path>
                                                    </g>
                                                    <g id="Group-25" transform="translate(14.897707, 0.000000)">
                                                        <mask id="mask-25" fill="white">
                                                            <use xlink:href="#path-24"></use>
                                                        </mask>
                                                        <g id="Clip-24"></g>
                                                        <polygon id="Fill-23" fill="#34A853" mask="url(#mask-25)" points="6.80174436 0.195494395 0.0852305684 59.6564983 14.034712 60.1736142"></polygon>
                                                    </g>
                                                    <polygon id="Fill-26" points="21.6994257 0.195389768 14.9829119 59.6566552 28.9323933 60.1735095"></polygon>
                                                    <path d="M22.2160625,56.8789294 L21.868188,33.9466574" id="Stroke-27" stroke="url(#linearGradient-26)" stroke-width="3.28084035" opacity="0.2" style="mix-blend-mode: soft-light;" stroke-linecap="square"></path>
                                                    <path d="M37.6941794,38.8375223 L28.9324979,58.4301201" id="Stroke-29" stroke="url(#linearGradient-27)" stroke-width="3.28084035" opacity="0.2" style="mix-blend-mode: soft-light;" stroke-linecap="square"></path>
                                                    <path d="M22.732647,103.413658 L22.732647,103.413658 C11.6045823,103.413658 2.58310565,94.3854471 2.58310565,83.2484919 L2.58310565,57.0712327 L42.8821884,57.0712327 L42.8821884,83.2484919 C42.8821884,94.3854471 33.8609731,103.413658 22.732647,103.413658" id="Fill-31" fill="#E1E2E6"></path>
                                                    <g id="Group-35" transform="translate(2.352270, 57.021378)" fill="url(#linearGradient-28)" opacity="0.2">
                                                        <path d="M20.3803252,46.3923841 L20.3803252,46.3923841 C9.25226042,46.3923841 0.230783784,37.3641735 0.230783784,26.2272183 L0.230783784,0.0499590974 L40.5298665,0.0499590974 L40.5298665,26.2272183 C40.5298665,37.3641735 31.5086513,46.3923841 20.3803252,46.3923841" id="Fill-33" style="mix-blend-mode: multiply;"></path>
                                                    </g>
                                                    <g id="Group-38" opacity="0.2" style="mix-blend-mode: multiply;" transform="translate(2.352270, 57.021378)">
                                                        <mask id="mask-30" fill="white">
                                                            <use xlink:href="#path-29"></use>
                                                        </mask>
                                                        <g id="Clip-37"></g>
                                                        <path d="M25.5626364,41.2057927 L25.5626364,41.2057927 C14.4345717,41.2057927 5.41335643,32.1778438 5.41335643,21.0408886 L5.41335643,0.0499590974 L0.230783784,0.0499590974 L0.230783784,26.2272183 C0.230783784,37.3641735 9.25226042,46.3923841 20.3803252,46.3923841 C27.268816,46.3923841 33.3468193,42.9308202 36.9805531,37.6537271 C33.7346824,39.8924701 29.8027331,41.2057927 25.5626364,41.2057927" id="Fill-36" fill="url(#linearGradient-31)" mask="url(#mask-30)"></path>
                                                    </g>
                                                    <path d="M1.07830652,84.9081279 L44.4933624,84.9081279" id="Stroke-39" stroke="#686C71" stroke-width="2.27836118" stroke-linecap="round"></path>
                                                    <path d="M13.7924544,85.0961153 L6.07518055,118.168253" id="Stroke-41" stroke="#686C71" stroke-width="2.27836118" stroke-linecap="round"></path>
                                                    <path d="M30.8104192,85.2940946 L38.5279544,118.366232" id="Stroke-43" stroke="#686C71" stroke-width="2.27836118" stroke-linecap="round"></path>
                                                </g>
                                            </g>
                                        </g>
                                    </g>
                                </g>
                                <g id="Group-259" transform="translate(219.842811, 334.051062)">
                                    <g id="Group-257">
                                        <path d="M8.28494955,-2.25468621 L14.3329627,-2.25468621 L14.3329627,16.262176 C14.3329627,17.9322888 12.9790689,19.2861826 11.3089561,19.2861826 C9.63884342,19.2861826 8.28494955,17.9322888 8.28494955,16.262176 L8.28494955,-2.25468621 Z" id="Rectangle" fill="#E2EAE3" transform="translate(11.308956, 8.515748) rotate(-285.000000) translate(-11.308956, -8.515748) "></path>
                                        <path d="M10.0553897,-3.02062295 L13.9552585,-4.97096973 L16.1034028,-3.02062295 L16.1034028,15.4962393 C16.1034028,17.166352 14.749509,18.5202459 13.0793963,18.5202459 C11.4092835,18.5202459 10.0553897,17.166352 10.0553897,15.4962393 L10.0553897,-3.02062295 Z" id="Rectangle" fill="#25272B" transform="translate(13.079396, 6.774638) rotate(-285.000000) translate(-13.079396, -6.774638) "></path>
                                    </g>
                                    <g id="Group-258" transform="translate(73.228220, 5.410655)">
                                        <path d="M8.28494955,0.619608404 L14.3329627,0.619608404 L14.3329627,19.1364707 C14.3329627,20.8065834 12.9790689,22.1604772 11.3089561,22.1604772 C9.63884342,22.1604772 8.28494955,20.8065834 8.28494955,19.1364707 L8.28494955,0.619608404 Z" id="Rectangle" fill="#E2EAE3" transform="translate(11.308956, 11.390043) rotate(-300.000000) translate(-11.308956, -11.390043) "></path>
                                        <path d="M9.94950737,-0.554680387 L12.6532691,-2.48548487 L15.9975205,-0.554680387 L15.9975205,17.9621819 C15.9975205,19.6322946 14.6436267,20.9861885 12.973514,20.9861885 C11.3034012,20.9861885 9.94950737,19.6322946 9.94950737,17.9621819 L9.94950737,-0.554680387 Z" id="Rectangle" fill="#25272B" transform="translate(12.973514, 9.250352) rotate(-300.000000) translate(-12.973514, -9.250352) "></path>
                                    </g>
                                </g>
                            </g>
                        </g>
                    </g>
                </g>
            </g>
        </g>
    </g>
</svg>
