<svg height="64" viewBox="0 0 64 64" width="64" xmlns="http://www.w3.org/2000/svg"><g fill="none" fill-rule="nonzero"><path d="m9.25 18.3356464v29.6643536c0 .7816441.6350226 1.4166667 1.4166667 1.4166667h42.6666666c.7816441 0 1.4166667-.6350226 1.4166667-1.4166667v-29.6643536l-22.75 15.1666666zm.12623272-2.920471 22.62376728 15.0825116 22.6237673-15.0825116c-.2229061-.4903643-.7172478-.8318421-1.290434-.8318421h-42.6666666c-.5731862 0-1.06752791.3414778-1.29043398.8318421zm47.87376728 13.9181579h-2.5v16 2.6666667c0 .7816441-.6350226 1.4166667-1.4166667 1.4166667h-8-10.6666666-5.3333334v2.5h-18.6666666c-2.16235597 0-3.9166667-1.7543108-3.9166667-3.9166667v-32c0-2.1623559 1.75431073-3.9166667 3.9166667-3.9166667h42.6666666c2.162356 0 3.9166667 1.7543108 3.9166667 3.9166667z" fill="#bdc1c6"/><path d="m34.6666667 49.4166667v2.5h-5.3333334v-2.5z" fill="#34a853"/><path d="m45.3333333 49.4166667v2.5h-10.6666666v-2.5z" fill="#fbbc04"/><path d="m54.75 45.3333333h2.5v2.6666667c0 2.1623559-1.7543107 3.9166667-3.9166667 3.9166667h-8v-2.5h8c.7816441 0 1.4166667-.6350226 1.4166667-1.4166667z" fill="#ea4335"/><path d="m54.75 29.3333333h2.5v16h-2.5z" fill="#4285f4"/></g></svg>