<?xml version="1.0" encoding="UTF-8"?>
<svg width="72px" height="50px" viewBox="0 0 72 50" version="1.1" xmlns="http://www.w3.org/2000/svg" xmlns:xlink="http://www.w3.org/1999/xlink">
    <!-- Generator: Sketch 50.2 (55047) - http://www.bohemiancoding.com/sketch -->
    <title>cloud</title>
    <desc>Created with Sketch.</desc>
    <defs>
        <polygon id="path-1" points="0.360821739 0.106692913 23.4219522 0.106692913 23.4219522 19.2662598 0.360821739 19.2662598"></polygon>
        <polygon id="path-3" points="0 0.0818897638 18.9140478 0.0818897638 18.9140478 38.1889764 0 38.1889764"></polygon>
    </defs>
    <g id="layout-selects" stroke="none" stroke-width="1" fill="none" fill-rule="evenodd">
        <g id="GoogleOne-desktop" transform="translate(-685.000000, -1304.000000)">
            <g id="Space-for-Everything" transform="translate(188.000000, 1304.000000)">
                <g id="header" transform="translate(137.000000, 0.000000)">
                    <g id="cloud" transform="translate(360.000000, 0.000000)">
                        <g id="Group-3" transform="translate(35.608696, 0.287008)">
                            <mask id="mask-2" fill="white">
                                <use xlink:href="#path-1"></use>
                            </mask>
                            <g id="Clip-2"></g>
                            <path d="M19.7749957,19.2662598 C18.0199957,10.3316142 9.85464783,3.8465748 0.360821739,3.8465748 L0.360821739,0.106417323 C11.6249087,0.106417323 21.323387,7.85917323 23.4219522,18.541063 L19.7749957,19.2662598 Z" id="Fill-1" fill="#EA4335" mask="url(#mask-2)"></path>
                        </g>
                        <path d="M18.9140478,49.8933071 L18.9140478,46.1531496 L55.8676565,46.1527559 C62.6798739,46.1527559 68.2219174,40.5767717 68.2219174,33.7228346 L71.9393087,33.7228346 C71.9393087,42.6389764 64.7295261,49.8929134 55.8676565,49.8929134 L18.9140478,49.8933071 Z" id="Fill-4" fill="#BDC1C6"></path>
                        <path d="M67.1801478,45.2054724 L64.5634957,42.5491732 C66.9226696,40.1960236 68.2218,37.061378 68.2218,33.7227953 L71.9391913,33.7227953 C71.9391913,38.0668898 70.2491478,42.1444488 67.1801478,45.2054724" id="Fill-6" fill="#34A853"></path>
                        <path d="M71.9392304,33.7229921 L68.2218391,33.7229921 C68.2218391,30.2848031 66.649187,26.8111811 64.0157087,24.4312598 C61.5782739,22.2292913 58.4854043,21.206063 55.3084043,21.5501575 L54.9100565,17.8316535 C59.151013,17.371811 63.2667522,18.7277165 66.4997087,21.6485827 C69.9056217,24.7265354 71.9392304,29.240315 71.9392304,33.7229921" id="Fill-8" fill="#FBBC04"></path>
                        <g id="Group-12" transform="translate(0.000000, 11.704331)">
                            <mask id="mask-4" fill="white">
                                <use xlink:href="#path-3"></use>
                            </mask>
                            <g id="Clip-11"></g>
                            <path d="M18.9140478,38.1889764 C13.8603522,38.1889764 9.10991739,36.2102362 5.53848261,32.6165354 C1.96665652,29.0232283 -3.91304348e-05,24.2440945 -3.91304348e-05,19.1590551 C-3.91304348e-05,10.9728346 4.03626522,4.41889764 10.7968304,1.62755906 C12.9783522,0.726771654 15.4388739,0.206692913 18.1099174,0.0818897638 L18.2828739,3.81771654 C16.0383522,3.92283465 13.9945696,4.35 12.2078739,5.08740157 C6.81217826,7.31535433 3.71735217,12.4444882 3.71735217,19.1590551 C3.71735217,23.2448819 5.29743913,27.0850394 8.16687391,29.9720472 C11.0363087,32.8590551 14.8530913,34.4488189 18.9140478,34.4488189 L18.9140478,38.1889764 Z" id="Fill-10" fill="#BDC1C6" mask="url(#mask-4)"></path>
                        </g>
                        <path d="M15.5876087,12.3417323 C19.7272174,5.05511811 27.612,0.393700787 35.9694783,0.393700787 L35.9694783,4.13385827 C28.7103913,4.13385827 22.0981304,8.17165354 18.7125652,14.6716535 L18.2672609,15.5271654" id="Fill-13" fill="#4285F4"></path>
                        <path d="M12.2079913,16.7918898 L10.7973391,13.3316535 C12.9784696,12.4308661 15.4389913,11.9111811 18.1100348,11.7859843 L18.2826,15.5222047 C16.0384696,15.6273228 13.9942957,16.0544882 12.2079913,16.7918898" id="Fill-15" fill="#4285F4"></path>
                    </g>
                </g>
            </g>
        </g>
    </g>
</svg>