<?xml version="1.0" encoding="UTF-8"?>
<svg width="56px" height="53px" viewBox="0 0 56 53" version="1.1" xmlns="http://www.w3.org/2000/svg" xmlns:xlink="http://www.w3.org/1999/xlink">
    <!-- Generator: Sketch 50.2 (55047) - http://www.bohemiancoding.com/sketch -->
    <title>heart</title>
    <desc>Created with Sketch.</desc>
    <defs>
        <polygon id="path-1" points="0.035860241 0.115392405 19.6320482 0.115392405 19.6320482 19.6011778 0.035860241 19.6011778"></polygon>
        <polygon id="path-3" points="0.148569437 0.115392405 19.7706988 0.115392405 19.7706988 19.6880576 0.148569437 19.6880576"></polygon>
        <polygon id="path-5" points="0 0.115392405 19.5966265 0.115392405 19.5966265 19.6011778 0 19.6011778"></polygon>
        <polygon id="path-7" points="0.19893494 0.115392405 19.7955614 0.115392405 19.7955614 19.6011778 0.19893494 19.6011778"></polygon>
    </defs>
    <g id="layout-selects" stroke="none" stroke-width="1" fill="none" fill-rule="evenodd">
        <g id="GoogleOne-desktop" transform="translate(-692.000000, -4442.000000)">
            <g id="footer_alt" transform="translate(0.000000, 4442.000000)">
                <g id="plan-headline" transform="translate(290.000000, 0.000000)">
                    <g id="heart" transform="translate(402.000000, 0.000000)">
                        <g id="Group-3" transform="translate(36.096386, 0.220051)">
                            <mask id="mask-2" fill="white">
                                <use xlink:href="#path-1"></use>
                            </mask>
                            <g id="Clip-2"></g>
                            <path d="M19.6321494,19.6011778 L16.4273301,19.6011778 L16.4273301,18.0078234 C16.4273301,9.89915886 9.79301687,3.30200063 1.63826988,3.30200063 L0.035860241,3.30200063 L0.035860241,0.115291772 L1.63826988,0.115291772 C11.560053,0.115291772 19.6321494,8.14177278 19.6321494,18.0078234 L19.6321494,19.6011778 Z" id="Fill-1" fill="#FBBC04" mask="url(#mask-2)"></path>
                        </g>
                        <g id="Group-6" transform="translate(19.566265, 0.220051)">
                            <mask id="mask-4" fill="white">
                                <use xlink:href="#path-3"></use>
                            </mask>
                            <g id="Clip-5"></g>
                            <path d="M0.266843373,19.6880576 L0.176771084,18.0973867 C-0.0866987952,13.4390892 1.50289157,9.04948165 4.65204819,5.73731709 C8.04881928,2.16451329 12.9754699,0.115291772 18.1682892,0.115291772 L19.7706988,0.115291772 L19.7706988,3.30200063 L18.1682892,3.30200063 C13.8525783,3.30200063 9.77503614,4.9876019 6.98077108,7.92641835 C4.40645783,10.6341146 3.15995181,14.0895133 3.37653012,17.9182601 L3.46626506,19.5092665 L0.266843373,19.6880576 Z" id="Fill-4" fill="#EA4335" mask="url(#mask-4)"></path>
                        </g>
                        <g id="Group-9" transform="translate(0.000000, 0.220051)">
                            <mask id="mask-6" fill="white">
                                <use xlink:href="#path-5"></use>
                            </mask>
                            <g id="Clip-8"></g>
                            <path d="M3.20481928,19.6011778 L0,19.6011778 L0,18.0078234 C0,8.14177278 8.07209639,0.115291772 17.9942169,0.115291772 L19.5966265,0.115291772 L19.5966265,3.30200063 L17.9942169,3.30200063 C9.83913253,3.30200063 3.20481928,9.89915886 3.20481928,18.0078234 L3.20481928,19.6011778 Z" id="Fill-7" fill="#BDC1C6" mask="url(#mask-6)"></path>
                        </g>
                        <g id="Group-12" transform="translate(16.192771, 0.220051)">
                            <mask id="mask-8" fill="white">
                                <use xlink:href="#path-7"></use>
                            </mask>
                            <g id="Clip-11"></g>
                            <path d="M19.7955614,19.6011778 L16.5907422,19.6011778 L16.5907422,18.0078234 C16.5907422,9.89915886 9.95642892,3.30200063 1.80134458,3.30200063 L0.19893494,3.30200063 L0.19893494,0.115291772 L1.80134458,0.115291772 C11.7234651,0.115291772 19.7955614,8.14177278 19.7955614,18.0078234 L19.7955614,19.6011778 Z" id="Fill-10" fill="#BDC1C6" mask="url(#mask-8)"></path>
                        </g>
                        <path d="M27.8642843,26.305812 C23.384959,26.305812 19.7405735,22.6820209 19.7405735,18.2280082 L19.7405735,16.6346538 L22.9453928,16.6346538 L22.9453928,18.2280082 C22.9453928,20.9249703 25.1519952,23.1191032 27.8642843,23.1191032 C30.5769108,23.1191032 32.7835133,20.9249703 32.7835133,18.2280082 L32.7835133,16.6346538 L35.9883325,16.6346538 L35.9883325,18.2280082 C35.9883325,22.6820209 32.343947,26.305812 27.8642843,26.305812" id="Fill-13" fill="#4285F4"></path>
                        <path d="M43.5902313,40.4645272 L41.2557735,38.2811285 L42.3538458,37.1204956 C45.4503759,33.8472424 47.9069542,30.5934449 49.6561108,27.4493373 C51.5587614,24.0288247 52.5235807,20.9266475 52.5235807,18.2280082 L52.5235807,16.6346538 L55.7284,16.6346538 L55.7284,18.2280082 C55.7284,21.4724133 54.6289783,25.0938563 52.4604964,28.9917044 C50.5824723,32.3679386 47.9673398,35.8374259 44.6883036,39.3038943 L43.5902313,40.4645272 Z" id="Fill-15" fill="#34A853"></path>
                        <path d="M27.8642843,52.8846076 L26.9993205,52.3328038 C10.8500675,42.0323544 0.000236144578,28.3264873 0.000236144578,18.2279747 L0.000236144578,16.6346203 L3.20505542,16.6346203 L3.20505542,18.2279747 C3.20505542,26.9712975 13.2992241,39.5671835 27.8642843,49.0917532 C33.3053928,45.5313608 38.2991759,41.4074241 42.3537783,37.120462 L43.4515133,35.9598291 L45.7863084,38.1432278 L44.6882361,39.3038608 C40.2419711,44.0040886 34.7236096,48.5094241 28.7292482,52.3328038 L27.8642843,52.8846076 Z" id="Fill-17" fill="#BDC1C6"></path>
                        <path d="M43.5902313,40.4645272 L41.2557735,38.2811285 L42.3538458,37.1204956 C45.4503759,33.8472424 47.9069542,30.5934449 49.6561108,27.4493373 L50.4316771,26.0549006 L53.2364,27.5972677 L52.4604964,28.9917044 C50.5824723,32.3679386 47.9673398,35.8374259 44.6883036,39.3038943 L43.5902313,40.4645272 Z" id="Fill-19" fill="#BDC1C6"></path>
                    </g>
                </g>
            </g>
        </g>
    </g>
</svg>